M48
; DRILL file KiCad 10.0.4 date 2026-07-18T10:16:32
; FORMAT={-:-/ absolute / metric / decimal}
; #@! TF.CreationDate,2026-07-18T10:16:32+08:00
; #@! TF.GenerationSoftware,Kicad,Pcbnew,10.0.4
; #@! TF.FileFunction,NonPlated,1,2,NPTH
FMAT,2
METRIC
; #@! TA.AperFunction,NonPlated,NPTH,ComponentDrill
T1C0.650
; #@! TA.AperFunction,NonPlated,NPTH,ComponentDrill
T2C1.702
; #@! TA.AperFunction,NonPlated,NPTH,ComponentDrill
T3C3.000
; #@! TA.AperFunction,NonPlated,NPTH,ComponentDrill
T4C3.048
; #@! TA.AperFunction,NonPlated,NPTH,ComponentDrill
T5C3.988
%
G90
G05
T1
X199.957Y-69.876
X205.737Y-69.876
T2
X59.33Y-97.58
X61.711Y-173.78
X64.093Y-116.63
X66.474Y-135.68
X69.49Y-97.58
X71.236Y-154.73
X71.871Y-173.78
X74.252Y-116.63
X76.634Y-135.68
X78.38Y-97.58
X81.396Y-154.73
X83.142Y-173.78
X87.905Y-116.63
X88.54Y-97.58
X92.667Y-135.68
X93.302Y-173.78
X97.43Y-97.58
X98.065Y-116.63
X102.192Y-154.73
X102.828Y-135.68
X104.574Y-173.78
X106.955Y-116.63
X107.59Y-97.58
X111.718Y-135.68
X112.352Y-154.73
X114.734Y-173.78
X116.48Y-97.58
X117.115Y-116.63
X121.242Y-154.73
X121.877Y-135.68
X126.005Y-116.63
X126.64Y-97.58
X128.386Y-173.78
X130.767Y-135.68
X131.403Y-154.73
X135.53Y-97.58
X136.165Y-116.63
X138.546Y-173.78
X140.292Y-154.73
X140.927Y-135.68
X145.055Y-116.63
X145.69Y-97.58
X149.817Y-135.68
X150.452Y-154.73
X154.58Y-97.58
X155.215Y-116.63
X159.343Y-154.73
X159.977Y-135.68
X164.105Y-116.63
X164.74Y-97.58
X168.867Y-135.68
X169.502Y-154.73
X173.63Y-97.58
X174.265Y-116.63
X178.392Y-154.73
X179.028Y-135.68
X183.155Y-116.63
X183.79Y-97.58
X187.917Y-135.68
X188.552Y-154.73
X192.68Y-97.58
X193.315Y-116.63
X197.442Y-154.73
X198.077Y-135.68
X199.824Y-173.78
X202.205Y-116.63
X202.84Y-97.58
X206.968Y-135.68
X207.602Y-154.73
X209.984Y-173.78
X211.73Y-97.58
X212.365Y-116.63
X216.492Y-154.73
X217.127Y-135.68
X221.255Y-116.63
X221.89Y-97.58
X226.017Y-135.68
X226.653Y-154.73
X230.78Y-97.58
X231.415Y-116.63
X235.542Y-154.73
X236.177Y-135.68
X240.305Y-116.63
X240.94Y-97.58
X245.067Y-135.68
X245.702Y-154.73
X249.83Y-97.58
X250.465Y-116.63
X254.593Y-154.73
X255.227Y-135.68
X259.355Y-116.63
X259.99Y-97.58
X264.118Y-135.68
X264.752Y-154.73
X268.88Y-97.58
X268.88Y-173.78
X269.515Y-116.63
X273.642Y-154.73
X274.277Y-135.68
X278.405Y-116.63
X279.04Y-97.58
X279.04Y-173.78
X283.167Y-135.68
X283.803Y-154.73
X287.93Y-97.58
X287.93Y-173.78
X288.565Y-116.63
X293.327Y-135.68
X297.455Y-116.63
X298.09Y-97.58
X298.09Y-173.78
X299.836Y-154.73
X306.98Y-173.78
X307.615Y-116.63
X309.996Y-154.73
X314.124Y-135.68
X316.505Y-97.58
X317.14Y-173.78
X321.267Y-116.63
X324.284Y-135.68
X326.03Y-154.73
X326.03Y-173.78
X326.665Y-97.58
X331.428Y-116.63
X336.19Y-154.73
X336.19Y-173.78
X345.08Y-97.58
X345.08Y-116.63
X345.08Y-135.68
X345.08Y-154.73
X345.08Y-173.78
X355.24Y-97.58
X355.24Y-116.63
X355.24Y-135.68
X355.24Y-154.73
X355.24Y-173.78
T3
X60.6Y-95.04
X62.981Y-171.24
X65.362Y-114.09
X66.95Y-92.5
X67.744Y-133.14
X69.331Y-168.7
X71.712Y-111.55
X72.506Y-152.19
X74.094Y-130.6
X78.856Y-149.65
X79.65Y-95.04
X84.412Y-171.24
X86.0Y-92.5
X89.175Y-114.09
X90.763Y-168.7
X93.938Y-133.14
X95.525Y-111.55
X98.7Y-95.04
X100.287Y-130.6
X103.462Y-152.19
X105.05Y-92.5
X105.844Y-171.24
X108.225Y-114.09
X109.812Y-149.65
X112.194Y-168.7
X112.987Y-133.14
X114.575Y-111.55
X117.75Y-95.04
X119.337Y-130.6
X122.512Y-152.19
X124.1Y-92.5
X127.275Y-114.09
X128.862Y-149.65
X129.656Y-171.24
X132.037Y-133.14
X133.625Y-111.55
X136.006Y-168.7
X136.8Y-95.04
X138.387Y-130.6
X141.562Y-152.19
X143.15Y-92.5
X146.325Y-114.09
X147.912Y-149.65
X151.088Y-133.14
X152.675Y-111.55
X155.85Y-95.04
X157.438Y-130.6
X160.612Y-152.19
X162.2Y-92.5
X165.375Y-114.09
X166.963Y-149.65
X170.137Y-133.14
X171.725Y-111.55
X174.9Y-95.04
X176.487Y-130.6
X179.662Y-152.19
X181.25Y-92.5
X184.425Y-114.09
X186.012Y-149.65
X189.188Y-133.14
X190.775Y-111.55
X193.95Y-95.04
X195.537Y-130.6
X198.712Y-152.19
X200.3Y-92.5
X201.094Y-171.24
X203.475Y-114.09
X205.062Y-149.65
X207.444Y-168.7
X208.237Y-133.14
X209.825Y-111.55
X213.0Y-95.04
X214.587Y-130.6
X217.762Y-152.19
X219.35Y-92.5
X222.525Y-114.09
X224.112Y-149.65
X227.287Y-133.14
X228.875Y-111.55
X232.05Y-95.04
X233.637Y-130.6
X236.812Y-152.19
X238.4Y-92.5
X241.575Y-114.09
X243.162Y-149.65
X246.337Y-133.14
X247.925Y-111.55
X251.1Y-95.04
X252.688Y-130.6
X255.862Y-152.19
X257.45Y-92.5
X260.625Y-114.09
X262.212Y-149.65
X265.387Y-133.14
X266.975Y-111.55
X270.15Y-95.04
X270.15Y-171.24
X271.738Y-130.6
X274.912Y-152.19
X276.5Y-92.5
X276.5Y-168.7
X279.675Y-114.09
X281.262Y-149.65
X284.438Y-133.14
X286.025Y-111.55
X289.2Y-95.04
X289.2Y-171.24
X290.787Y-130.6
X295.55Y-92.5
X295.55Y-168.7
X298.725Y-114.09
X301.106Y-152.19
X305.075Y-111.55
X307.456Y-149.65
X308.25Y-171.24
X314.6Y-168.7
X315.394Y-133.14
X317.775Y-95.04
X321.744Y-130.6
X322.537Y-114.09
X324.125Y-92.5
X327.3Y-152.19
X327.3Y-171.24
X328.887Y-111.55
X333.65Y-149.65
X333.65Y-168.7
X346.35Y-95.04
X346.35Y-114.09
X346.35Y-133.14
X346.35Y-152.19
X346.35Y-171.24
X352.7Y-92.5
X352.7Y-111.55
X352.7Y-130.6
X352.7Y-149.65
X352.7Y-168.7
T4
X64.378Y-147.745
X88.254Y-147.745
X154.904Y-166.795
X254.904Y-166.795
X307.266Y-128.695
X309.647Y-90.595
X331.142Y-128.695
X333.523Y-90.595
T5
X64.378Y-162.985
X64.41Y-97.58
X66.791Y-173.78
X69.172Y-116.63
X71.554Y-135.68
X76.316Y-154.73
X83.46Y-97.58
X88.222Y-173.78
X88.254Y-162.985
X92.985Y-116.63
X97.748Y-135.68
X102.51Y-97.58
X107.272Y-154.73
X109.654Y-173.78
X112.035Y-116.63
X116.797Y-135.68
X121.56Y-97.58
X126.322Y-154.73
X131.085Y-116.63
X133.466Y-173.78
X135.847Y-135.68
X140.61Y-97.58
X145.373Y-154.73
X150.135Y-116.63
X154.897Y-135.68
X154.904Y-182.035
X159.66Y-97.58
X164.422Y-154.73
X169.185Y-116.63
X173.947Y-135.68
X178.71Y-97.58
X183.472Y-154.73
X188.235Y-116.63
X192.998Y-135.68
X197.76Y-97.58
X202.522Y-154.73
X204.904Y-173.78
X207.285Y-116.63
X212.047Y-135.68
X216.81Y-97.58
X221.572Y-154.73
X226.335Y-116.63
X231.097Y-135.68
X235.86Y-97.58
X240.623Y-154.73
X245.385Y-116.63
X250.147Y-135.68
X254.904Y-182.035
X254.91Y-97.58
X259.673Y-154.73
X264.435Y-116.63
X269.197Y-135.68
X273.96Y-97.58
X273.96Y-173.78
X278.722Y-154.73
X283.485Y-116.63
X288.248Y-135.68
X293.01Y-97.58
X293.01Y-173.78
X302.535Y-116.63
X304.916Y-154.73
X307.266Y-143.935
X309.647Y-105.835
X312.06Y-173.78
X319.204Y-135.68
X321.585Y-97.58
X326.347Y-116.63
X331.11Y-154.73
X331.11Y-173.78
X331.142Y-143.935
X333.523Y-105.835
X350.16Y-97.58
X350.16Y-116.63
X350.16Y-135.68
X350.16Y-154.73
X350.16Y-173.78
M30
