G04 #@! TF.GenerationSoftware,KiCad,Pcbnew,10.0.4*
G04 #@! TF.CreationDate,2026-07-18T10:16:11+08:00*
G04 #@! TF.ProjectId,keyboard_pcb_projects,6b657962-6f61-4726-945f-7063625f7072,rev?*
G04 #@! TF.SameCoordinates,Original*
G04 #@! TF.FileFunction,Profile,NP*
%FSLAX46Y46*%
G04 Gerber Fmt 4.6, Leading zero omitted, Abs format (unit mm)*
G04 Created by KiCad (PCBNEW 10.0.4) date 2026-07-18 10:16:11*
%MOMM*%
%LPD*%
G01*
G04 APERTURE LIST*
G04 #@! TA.AperFunction,Profile*
%ADD10C,0.050000*%
G04 #@! TD*
G04 APERTURE END LIST*
D10*
X38847500Y-70948750D02*
X38847500Y-94948750D01*
X38847500Y-94948750D02*
X38847500Y-117948750D01*
X38847500Y-117948750D02*
X38847500Y-151448750D01*
X38847500Y-151448750D02*
X38847500Y-166948750D01*
X38847500Y-166948750D02*
X38847500Y-191948750D01*
X38847500Y-191948750D02*
X38847500Y-202948750D01*
X38847500Y-202948750D02*
X38847500Y-207448750D01*
X38847500Y-207448750D02*
X38847500Y-209448750D01*
X38847500Y-209448750D02*
X40347500Y-209448750D01*
X189347500Y-70948750D02*
X38847500Y-70948750D01*
X193847500Y-63448750D02*
X193847500Y-70948750D01*
X193847500Y-63448750D02*
X210847500Y-63448750D01*
X193847500Y-70948750D02*
X189347500Y-70948750D01*
X210847500Y-63448750D02*
X211847500Y-63448750D01*
X211847500Y-63448750D02*
X211847500Y-70948750D01*
X211847500Y-70948750D02*
X374347500Y-70948750D01*
X374347500Y-70948750D02*
X374347500Y-83948750D01*
X374347500Y-83948750D02*
X374347500Y-189448750D01*
X374347500Y-189448750D02*
X374347500Y-200948750D01*
X374347500Y-200948750D02*
X374347500Y-209448750D01*
X374347500Y-209448750D02*
X40347500Y-209448750D01*
M02*
