M48
; DRILL file KiCad 10.0.4 date 2026-07-18T10:16:32
; FORMAT={-:-/ absolute / metric / decimal}
; #@! TF.CreationDate,2026-07-18T10:16:32+08:00
; #@! TF.GenerationSoftware,Kicad,Pcbnew,10.0.4
; #@! TF.FileFunction,Plated,1,2,PTH
FMAT,2
METRIC
; #@! TA.AperFunction,Plated,PTH,ViaDrill
T1C0.300
; #@! TA.AperFunction,Plated,PTH,ComponentDrill
T2C0.600
; #@! TA.AperFunction,Plated,PTH,ComponentDrill
T3C1.000
; #@! TA.AperFunction,Plated,PTH,ComponentDrill
T4C2.200
%
G90
G05
T1
X70.252Y-92.5
X72.633Y-168.7
X75.014Y-111.55
X77.396Y-130.6
X79.347Y-178.449
X79.347Y-180.449
X82.158Y-149.65
X89.302Y-92.5
X94.097Y-168.7
X98.827Y-111.55
X101.347Y-177.949
X101.347Y-180.449
X103.59Y-130.6
X108.352Y-92.5
X113.114Y-149.65
X115.496Y-168.7
X117.877Y-111.55
X122.639Y-130.6
X122.847Y-178.449
X122.847Y-181.449
X127.402Y-92.5
X132.165Y-149.65
X136.927Y-111.449
X139.308Y-168.7
X141.689Y-130.6
X146.452Y-92.5
X149.347Y-177.949
X149.347Y-181.449
X151.214Y-149.65
X155.977Y-111.55
X160.739Y-130.449
X165.502Y-92.5
X170.264Y-149.65
X173.347Y-177.949
X173.347Y-180.949
X173.847Y-158.949
X173.847Y-161.949
X175.027Y-111.449
X177.847Y-178.449
X177.847Y-180.449
X179.847Y-130.658
X184.552Y-92.5
X185.266Y-180.924
X189.314Y-149.65
X193.347Y-159.449
X193.347Y-161.449
X194.077Y-111.55
X194.347Y-180.349
X194.347Y-182.649
X195.347Y-167.949
X196.847Y-75.949
X197.847Y-84.436
X198.839Y-130.449
X199.426Y-74.399
X200.347Y-66.449
X200.347Y-67.949
X200.547Y-175.249
X201.947Y-80.099
X202.547Y-175.349
X203.602Y-92.5
X203.847Y-167.949
X203.947Y-80.099
X205.347Y-66.449
X205.347Y-67.949
X206.248Y-74.349
X206.397Y-78.399
X207.847Y-171.949
X208.347Y-172.949
X208.364Y-149.65
X208.847Y-75.949
X210.746Y-168.7
X212.347Y-173.449
X212.347Y-176.149
X212.847Y-161.949
X213.127Y-111.55
X213.647Y-171.749
X213.847Y-146.949
X214.248Y-170.749
X214.847Y-182.649
X215.222Y-174.817
X215.222Y-181.167
X215.947Y-170.749
X216.447Y-171.449
X216.847Y-174.449
X217.054Y-166.636
X217.347Y-180.199
X217.647Y-182.049
X217.889Y-130.6
X217.947Y-168.949
X218.191Y-184.099
X218.291Y-172.974
X218.291Y-174.574
X218.291Y-175.374
X219.347Y-165.949
X219.954Y-168.911
X221.554Y-168.911
X221.572Y-162.461
X221.572Y-164.461
X221.847Y-184.449
X221.847Y-185.749
X222.248Y-170.649
X222.347Y-139.949
X222.347Y-142.949
X222.354Y-168.911
X222.652Y-92.5
X222.847Y-184.449
X222.847Y-186.449
X223.847Y-184.449
X223.847Y-186.949
X223.954Y-162.461
X223.954Y-164.461
X224.754Y-168.911
X224.847Y-184.449
X224.847Y-187.449
X225.847Y-184.449
X225.847Y-187.949
X226.31Y-166.449
X226.354Y-168.911
X226.847Y-184.449
X226.847Y-187.949
X227.154Y-168.911
X227.415Y-149.65
X227.847Y-184.449
X227.847Y-186.949
X227.954Y-168.911
X228.847Y-184.449
X228.847Y-185.949
X229.347Y-159.449
X229.347Y-161.449
X229.616Y-171.374
X229.616Y-176.174
X229.616Y-176.974
X232.135Y-183.305
X232.212Y-111.585
X233.197Y-173.549
X234.847Y-120.949
X234.847Y-124.449
X236.654Y-141.299
X236.939Y-130.6
X241.702Y-92.5
X245.347Y-173.949
X245.347Y-176.949
X246.464Y-149.65
X250.941Y-122.249
X251.227Y-111.55
X251.847Y-176.449
X253.347Y-176.449
X255.989Y-130.6
X257.847Y-177.449
X257.847Y-178.449
X260.347Y-178.449
X260.752Y-92.5
X265.514Y-149.65
X268.347Y-158.949
X270.277Y-111.55
X275.039Y-130.6
X276.847Y-177.449
X279.802Y-168.7
X279.847Y-92.545
X284.565Y-149.65
X289.347Y-111.57
X294.089Y-130.6
X298.852Y-92.5
X298.852Y-168.7
X308.312Y-111.485
X310.758Y-149.65
X317.902Y-168.7
X320.347Y-177.949
X320.347Y-180.949
X325.046Y-130.6
X327.427Y-92.5
X332.19Y-111.55
X336.952Y-149.65
X336.952Y-168.7
X339.847Y-177.949
X339.847Y-180.949
X356.002Y-92.5
X356.002Y-111.55
X356.002Y-130.6
X356.002Y-149.65
X356.002Y-168.7
T3
X190.145Y-171.24
X190.145Y-173.78
X190.145Y-176.32
X192.685Y-171.24
X192.685Y-173.78
X192.685Y-176.32
T4
X48.0Y-80.0
X48.0Y-200.0
X160.0Y-80.0
X160.0Y-200.0
X253.0Y-80.0
X253.0Y-200.0
X365.0Y-80.0
X365.0Y-200.0
T2
G00X198.528Y-65.926
M15
G01X198.528Y-66.526
M16
G05
G00X198.528Y-69.856
M15
G01X198.528Y-70.956
M16
G05
G00X207.167Y-65.926
M15
G01X207.167Y-66.526
M16
G05
G00X207.167Y-69.856
M15
G01X207.167Y-70.956
M16
G05
M30
