G04 #@! TF.GenerationSoftware,KiCad,Pcbnew,10.0.4*
G04 #@! TF.CreationDate,2026-07-18T10:16:11+08:00*
G04 #@! TF.ProjectId,keyboard_pcb_projects,6b657962-6f61-4726-945f-7063625f7072,rev?*
G04 #@! TF.SameCoordinates,Original*
G04 #@! TF.FileFunction,Legend,Top*
G04 #@! TF.FilePolarity,Positive*
%FSLAX46Y46*%
G04 Gerber Fmt 4.6, Leading zero omitted, Abs format (unit mm)*
G04 Created by KiCad (PCBNEW 10.0.4) date 2026-07-18 10:16:11*
%MOMM*%
%LPD*%
G01*
G04 APERTURE LIST*
%ADD10C,0.150000*%
%ADD11C,0.000000*%
G04 APERTURE END LIST*
D10*
X47238095Y-77304819D02*
X47238095Y-76304819D01*
X47238095Y-76781009D02*
X47809523Y-76781009D01*
X47809523Y-77304819D02*
X47809523Y-76304819D01*
X48809523Y-77304819D02*
X48238095Y-77304819D01*
X48523809Y-77304819D02*
X48523809Y-76304819D01*
X48523809Y-76304819D02*
X48428571Y-76447676D01*
X48428571Y-76447676D02*
X48333333Y-76542914D01*
X48333333Y-76542914D02*
X48238095Y-76590533D01*
X47238095Y-197304819D02*
X47238095Y-196304819D01*
X47238095Y-196781009D02*
X47809523Y-196781009D01*
X47809523Y-197304819D02*
X47809523Y-196304819D01*
X48238095Y-196400057D02*
X48285714Y-196352438D01*
X48285714Y-196352438D02*
X48380952Y-196304819D01*
X48380952Y-196304819D02*
X48619047Y-196304819D01*
X48619047Y-196304819D02*
X48714285Y-196352438D01*
X48714285Y-196352438D02*
X48761904Y-196400057D01*
X48761904Y-196400057D02*
X48809523Y-196495295D01*
X48809523Y-196495295D02*
X48809523Y-196590533D01*
X48809523Y-196590533D02*
X48761904Y-196733390D01*
X48761904Y-196733390D02*
X48190476Y-197304819D01*
X48190476Y-197304819D02*
X48809523Y-197304819D01*
X364238095Y-77304819D02*
X364238095Y-76304819D01*
X364238095Y-76781009D02*
X364809523Y-76781009D01*
X364809523Y-77304819D02*
X364809523Y-76304819D01*
X365714285Y-76304819D02*
X365523809Y-76304819D01*
X365523809Y-76304819D02*
X365428571Y-76352438D01*
X365428571Y-76352438D02*
X365380952Y-76400057D01*
X365380952Y-76400057D02*
X365285714Y-76542914D01*
X365285714Y-76542914D02*
X365238095Y-76733390D01*
X365238095Y-76733390D02*
X365238095Y-77114342D01*
X365238095Y-77114342D02*
X365285714Y-77209580D01*
X365285714Y-77209580D02*
X365333333Y-77257200D01*
X365333333Y-77257200D02*
X365428571Y-77304819D01*
X365428571Y-77304819D02*
X365619047Y-77304819D01*
X365619047Y-77304819D02*
X365714285Y-77257200D01*
X365714285Y-77257200D02*
X365761904Y-77209580D01*
X365761904Y-77209580D02*
X365809523Y-77114342D01*
X365809523Y-77114342D02*
X365809523Y-76876247D01*
X365809523Y-76876247D02*
X365761904Y-76781009D01*
X365761904Y-76781009D02*
X365714285Y-76733390D01*
X365714285Y-76733390D02*
X365619047Y-76685771D01*
X365619047Y-76685771D02*
X365428571Y-76685771D01*
X365428571Y-76685771D02*
X365333333Y-76733390D01*
X365333333Y-76733390D02*
X365285714Y-76781009D01*
X365285714Y-76781009D02*
X365238095Y-76876247D01*
X159238095Y-77304819D02*
X159238095Y-76304819D01*
X159238095Y-76781009D02*
X159809523Y-76781009D01*
X159809523Y-77304819D02*
X159809523Y-76304819D01*
X160428571Y-76733390D02*
X160333333Y-76685771D01*
X160333333Y-76685771D02*
X160285714Y-76638152D01*
X160285714Y-76638152D02*
X160238095Y-76542914D01*
X160238095Y-76542914D02*
X160238095Y-76495295D01*
X160238095Y-76495295D02*
X160285714Y-76400057D01*
X160285714Y-76400057D02*
X160333333Y-76352438D01*
X160333333Y-76352438D02*
X160428571Y-76304819D01*
X160428571Y-76304819D02*
X160619047Y-76304819D01*
X160619047Y-76304819D02*
X160714285Y-76352438D01*
X160714285Y-76352438D02*
X160761904Y-76400057D01*
X160761904Y-76400057D02*
X160809523Y-76495295D01*
X160809523Y-76495295D02*
X160809523Y-76542914D01*
X160809523Y-76542914D02*
X160761904Y-76638152D01*
X160761904Y-76638152D02*
X160714285Y-76685771D01*
X160714285Y-76685771D02*
X160619047Y-76733390D01*
X160619047Y-76733390D02*
X160428571Y-76733390D01*
X160428571Y-76733390D02*
X160333333Y-76781009D01*
X160333333Y-76781009D02*
X160285714Y-76828628D01*
X160285714Y-76828628D02*
X160238095Y-76923866D01*
X160238095Y-76923866D02*
X160238095Y-77114342D01*
X160238095Y-77114342D02*
X160285714Y-77209580D01*
X160285714Y-77209580D02*
X160333333Y-77257200D01*
X160333333Y-77257200D02*
X160428571Y-77304819D01*
X160428571Y-77304819D02*
X160619047Y-77304819D01*
X160619047Y-77304819D02*
X160714285Y-77257200D01*
X160714285Y-77257200D02*
X160761904Y-77209580D01*
X160761904Y-77209580D02*
X160809523Y-77114342D01*
X160809523Y-77114342D02*
X160809523Y-76923866D01*
X160809523Y-76923866D02*
X160761904Y-76828628D01*
X160761904Y-76828628D02*
X160714285Y-76781009D01*
X160714285Y-76781009D02*
X160619047Y-76733390D01*
X252238095Y-77304819D02*
X252238095Y-76304819D01*
X252238095Y-76781009D02*
X252809523Y-76781009D01*
X252809523Y-77304819D02*
X252809523Y-76304819D01*
X253190476Y-76304819D02*
X253857142Y-76304819D01*
X253857142Y-76304819D02*
X253428571Y-77304819D01*
X159238095Y-197304819D02*
X159238095Y-196304819D01*
X159238095Y-196781009D02*
X159809523Y-196781009D01*
X159809523Y-197304819D02*
X159809523Y-196304819D01*
X160190476Y-196304819D02*
X160809523Y-196304819D01*
X160809523Y-196304819D02*
X160476190Y-196685771D01*
X160476190Y-196685771D02*
X160619047Y-196685771D01*
X160619047Y-196685771D02*
X160714285Y-196733390D01*
X160714285Y-196733390D02*
X160761904Y-196781009D01*
X160761904Y-196781009D02*
X160809523Y-196876247D01*
X160809523Y-196876247D02*
X160809523Y-197114342D01*
X160809523Y-197114342D02*
X160761904Y-197209580D01*
X160761904Y-197209580D02*
X160714285Y-197257200D01*
X160714285Y-197257200D02*
X160619047Y-197304819D01*
X160619047Y-197304819D02*
X160333333Y-197304819D01*
X160333333Y-197304819D02*
X160238095Y-197257200D01*
X160238095Y-197257200D02*
X160190476Y-197209580D01*
X364238095Y-197304819D02*
X364238095Y-196304819D01*
X364238095Y-196781009D02*
X364809523Y-196781009D01*
X364809523Y-197304819D02*
X364809523Y-196304819D01*
X365761904Y-196304819D02*
X365285714Y-196304819D01*
X365285714Y-196304819D02*
X365238095Y-196781009D01*
X365238095Y-196781009D02*
X365285714Y-196733390D01*
X365285714Y-196733390D02*
X365380952Y-196685771D01*
X365380952Y-196685771D02*
X365619047Y-196685771D01*
X365619047Y-196685771D02*
X365714285Y-196733390D01*
X365714285Y-196733390D02*
X365761904Y-196781009D01*
X365761904Y-196781009D02*
X365809523Y-196876247D01*
X365809523Y-196876247D02*
X365809523Y-197114342D01*
X365809523Y-197114342D02*
X365761904Y-197209580D01*
X365761904Y-197209580D02*
X365714285Y-197257200D01*
X365714285Y-197257200D02*
X365619047Y-197304819D01*
X365619047Y-197304819D02*
X365380952Y-197304819D01*
X365380952Y-197304819D02*
X365285714Y-197257200D01*
X365285714Y-197257200D02*
X365238095Y-197209580D01*
X252238095Y-197304819D02*
X252238095Y-196304819D01*
X252238095Y-196781009D02*
X252809523Y-196781009D01*
X252809523Y-197304819D02*
X252809523Y-196304819D01*
X253714285Y-196638152D02*
X253714285Y-197304819D01*
X253476190Y-196257200D02*
X253238095Y-196971485D01*
X253238095Y-196971485D02*
X253857142Y-196971485D01*
D11*
G04 #@! TO.C,G\u002A\u002A\u002A*
G36*
X314183753Y-162569719D02*
G01*
X314931061Y-162828523D01*
X315364625Y-163247784D01*
X315487576Y-163732469D01*
X315303046Y-164187545D01*
X314814168Y-164517977D01*
X314115846Y-164630251D01*
X313384033Y-164630251D01*
X313384033Y-163535097D01*
X313384033Y-162439942D01*
X314183753Y-162569719D01*
G37*
G36*
X312789929Y-178703551D02*
G01*
X312964944Y-179340532D01*
X313053134Y-179731512D01*
X313125071Y-180203105D01*
X313005901Y-180391830D01*
X312653933Y-180425209D01*
X312245541Y-180336654D01*
X312104551Y-180158403D01*
X312159846Y-179794434D01*
X312296035Y-179217431D01*
X312344778Y-179037814D01*
X312503365Y-178575225D01*
X312643909Y-178456126D01*
X312789929Y-178703551D01*
G37*
G36*
X314824876Y-166437229D02*
G01*
X315237935Y-166748228D01*
X315375346Y-167321119D01*
X315376190Y-167386263D01*
X315345994Y-167899288D01*
X315184472Y-168181003D01*
X314785222Y-168328753D01*
X314255442Y-168411596D01*
X313384033Y-168528477D01*
X313384033Y-167433145D01*
X313395665Y-166791028D01*
X313476499Y-166467328D01*
X313695439Y-166353570D01*
X314077730Y-166341083D01*
X314824876Y-166437229D01*
G37*
G36*
X268820176Y-162757867D02*
G01*
X269590163Y-163511051D01*
X270078530Y-164504714D01*
X270252991Y-165632826D01*
X270081256Y-166789356D01*
X270064076Y-166842780D01*
X269765110Y-167429928D01*
X269319330Y-167979311D01*
X268844834Y-168365345D01*
X268531719Y-168472268D01*
X268465622Y-168271515D01*
X268409994Y-167719942D01*
X268369493Y-166893583D01*
X268348776Y-165868468D01*
X268347058Y-165457999D01*
X268347058Y-162443729D01*
X268820176Y-162757867D01*
G37*
G36*
X305464674Y-162673365D02*
G01*
X305925546Y-163128541D01*
X306366417Y-163745037D01*
X306695006Y-164406565D01*
X306765862Y-164625187D01*
X306893287Y-165666988D01*
X306747651Y-166670274D01*
X306363721Y-167521740D01*
X305776264Y-168108085D01*
X305680534Y-168162166D01*
X305228488Y-168378604D01*
X304966653Y-168472172D01*
X304963540Y-168472268D01*
X304921375Y-168271559D01*
X304885932Y-167720344D01*
X304860211Y-166894993D01*
X304847209Y-165871874D01*
X304846218Y-165484033D01*
X304862588Y-164101925D01*
X304911700Y-163145450D01*
X304993552Y-162614609D01*
X305076082Y-162495798D01*
X305464674Y-162673365D01*
G37*
G36*
X333234453Y-170499999D02*
G01*
X333234453Y-187042016D01*
X292999999Y-187042016D01*
X252765546Y-187042016D01*
X252765546Y-178610924D01*
X261516806Y-178610924D01*
X261516806Y-182986554D01*
X263651260Y-182986554D01*
X265785714Y-182986554D01*
X266426050Y-182986554D01*
X267279831Y-182986554D01*
X268133613Y-182986554D01*
X268144681Y-180478571D01*
X268155749Y-177970588D01*
X269427090Y-180478571D01*
X269946376Y-181495771D01*
X270322463Y-182192370D01*
X270604145Y-182629048D01*
X270840213Y-182866486D01*
X271079461Y-182965363D01*
X271370682Y-182986360D01*
X271443753Y-182986554D01*
X272189075Y-182986554D01*
X272829411Y-182986554D01*
X273569696Y-182986554D01*
X274309981Y-182986554D01*
X274370116Y-180478571D01*
X274430251Y-177970588D01*
X275005418Y-179197898D01*
X275396377Y-179917088D01*
X275743974Y-180340526D01*
X275924306Y-180425209D01*
X276215944Y-180232693D01*
X276584138Y-179700141D01*
X276843258Y-179197898D01*
X277418487Y-177970588D01*
X277478622Y-180478571D01*
X277538757Y-182986554D01*
X278279042Y-182986554D01*
X279019327Y-182986554D01*
X279659663Y-182986554D01*
X280513445Y-182986554D01*
X281367226Y-182986554D01*
X282007562Y-182986554D01*
X282854570Y-182986554D01*
X283701578Y-182986554D01*
X283761713Y-180478571D01*
X283821848Y-177970588D01*
X285098225Y-180478571D01*
X285621077Y-181496944D01*
X286000913Y-182194186D01*
X286285547Y-182631030D01*
X286522790Y-182868209D01*
X286760453Y-182966457D01*
X287046348Y-182986509D01*
X287072595Y-182986554D01*
X287770588Y-182986554D01*
X287770588Y-178696937D01*
X288506668Y-178696937D01*
X288693556Y-180020432D01*
X289144466Y-181179872D01*
X289830836Y-182096754D01*
X290549632Y-182612693D01*
X291316301Y-182917967D01*
X291972016Y-182940101D01*
X292723198Y-182681452D01*
X292815044Y-182638560D01*
X293530382Y-182191942D01*
X293954869Y-181616912D01*
X294146547Y-180807792D01*
X294173949Y-180164271D01*
X294173949Y-178931092D01*
X292786554Y-178931092D01*
X291399159Y-178931092D01*
X291399159Y-179678151D01*
X291439027Y-180183356D01*
X291618435Y-180390178D01*
X291932772Y-180425209D01*
X292354061Y-180527964D01*
X292466386Y-180837717D01*
X292308913Y-181250625D01*
X291916811Y-181408567D01*
X291410560Y-181293509D01*
X291060507Y-181048181D01*
X290499081Y-180248503D01*
X290195684Y-179216759D01*
X290164391Y-178071199D01*
X290419280Y-176930076D01*
X290536257Y-176644086D01*
X291019921Y-175913771D01*
X291613916Y-175576705D01*
X292288831Y-175646824D01*
X292466644Y-175729549D01*
X292846944Y-175856086D01*
X293193583Y-175714674D01*
X293453994Y-175490503D01*
X293974435Y-175001574D01*
X293167049Y-174512805D01*
X292339192Y-174169008D01*
X297375630Y-174169008D01*
X297436778Y-174411519D01*
X297604718Y-174986223D01*
X297856191Y-175818713D01*
X298167941Y-176834581D01*
X298516710Y-177959421D01*
X298879241Y-179118827D01*
X299232275Y-180238391D01*
X299552555Y-181243706D01*
X299816823Y-182060366D01*
X300001823Y-182613964D01*
X300081718Y-182826470D01*
X300341605Y-182944651D01*
X300757963Y-182986554D01*
X301026265Y-182961184D01*
X301235479Y-182836868D01*
X301429036Y-182541296D01*
X301650366Y-182002156D01*
X301942900Y-181147138D01*
X302039938Y-180852100D01*
X302334177Y-179975777D01*
X302583189Y-179273827D01*
X302756332Y-178830262D01*
X302818487Y-178717646D01*
X302912943Y-178906961D01*
X303106699Y-179418898D01*
X303369113Y-180169447D01*
X303597035Y-180852100D01*
X303912946Y-181801550D01*
X304144056Y-182417133D01*
X304336910Y-182771167D01*
X304538053Y-182935968D01*
X304794031Y-182983852D01*
X304970832Y-182986554D01*
X305645003Y-182986554D01*
X305665039Y-182933193D01*
X309551605Y-182933193D01*
X309734868Y-182966508D01*
X310204675Y-182985133D01*
X310401134Y-182986554D01*
X310961889Y-182954121D01*
X311238732Y-182795590D01*
X311373267Y-182419108D01*
X311388319Y-182346218D01*
X311498753Y-181958348D01*
X311710710Y-181770304D01*
X312152199Y-181710308D01*
X312530251Y-181705882D01*
X313148530Y-181726635D01*
X313468288Y-181836750D01*
X313617534Y-182108007D01*
X313672184Y-182346218D01*
X313800837Y-182763076D01*
X314056081Y-182944789D01*
X314581513Y-182986427D01*
X314639386Y-182986554D01*
X316158823Y-182986554D01*
X316905882Y-182986554D01*
X317652940Y-182986554D01*
X317652940Y-180531932D01*
X317666292Y-179565554D01*
X317702587Y-178778282D01*
X317756181Y-178254371D01*
X317817319Y-178077310D01*
X317968679Y-178257517D01*
X318265005Y-178750133D01*
X318665629Y-179483148D01*
X319129887Y-180384554D01*
X319203543Y-180531932D01*
X319712344Y-181542197D01*
X320083020Y-182229566D01*
X320362491Y-182655848D01*
X320597675Y-182882848D01*
X320835491Y-182972374D01*
X321066896Y-182986554D01*
X321708403Y-182986554D01*
X321708403Y-178610924D01*
X321708403Y-178312266D01*
X322566872Y-178312266D01*
X322698213Y-179900481D01*
X323102821Y-181166831D01*
X323779124Y-182107856D01*
X324529763Y-182631577D01*
X325270171Y-182920855D01*
X325906566Y-182944802D01*
X326550390Y-182758890D01*
X327350878Y-182355635D01*
X327835710Y-181821956D01*
X328067105Y-181059123D01*
X328111764Y-180281280D01*
X328111764Y-178931092D01*
X326831092Y-178931092D01*
X325550419Y-178931092D01*
X325550419Y-179678151D01*
X325598172Y-180193039D01*
X325784593Y-180400790D01*
X325977310Y-180425209D01*
X326311913Y-180575235D01*
X326403090Y-180908163D01*
X326238983Y-181248273D01*
X326041237Y-181372601D01*
X325542354Y-181355436D01*
X325029467Y-180995974D01*
X324579445Y-180369027D01*
X324303782Y-179681722D01*
X324115088Y-178407160D01*
X324274593Y-177238662D01*
X324768703Y-176257390D01*
X324904880Y-176092535D01*
X325307868Y-175674945D01*
X325620006Y-175530098D01*
X326027469Y-175605940D01*
X326301855Y-175701931D01*
X326840169Y-175866322D01*
X327176408Y-175834014D01*
X327499859Y-175578812D01*
X327549478Y-175529270D01*
X328005041Y-175070197D01*
X327471428Y-174657388D01*
X326858836Y-174311937D01*
X326245520Y-174109722D01*
X325183147Y-174092652D01*
X324256201Y-174451332D01*
X323498764Y-175146826D01*
X322944920Y-176140198D01*
X322628750Y-177392511D01*
X322566872Y-178312266D01*
X321708403Y-178312266D01*
X321708403Y-174235293D01*
X320961344Y-174235293D01*
X320214285Y-174235293D01*
X320214285Y-176369747D01*
X320198617Y-177265717D01*
X320156371Y-177976491D01*
X320094684Y-178411725D01*
X320045687Y-178504201D01*
X319889610Y-178324295D01*
X319594851Y-177836310D01*
X319205722Y-177117848D01*
X318826890Y-176369747D01*
X317776690Y-174235293D01*
X316967757Y-174235293D01*
X316158823Y-174235293D01*
X316158823Y-178610924D01*
X316158823Y-182986554D01*
X314639386Y-182986554D01*
X315180923Y-182953410D01*
X315393883Y-182822406D01*
X315391195Y-182613025D01*
X315293488Y-182179701D01*
X315133438Y-181452931D01*
X314927639Y-180509672D01*
X314692685Y-179426887D01*
X314516351Y-178610924D01*
X314445168Y-178281536D01*
X314201681Y-177150578D01*
X313978819Y-176110974D01*
X313793173Y-175239685D01*
X313661337Y-174613670D01*
X313599905Y-174309891D01*
X313597478Y-174293631D01*
X313407898Y-174256788D01*
X312930977Y-174261950D01*
X312690335Y-174276382D01*
X311783193Y-174342016D01*
X310672194Y-178610924D01*
X310338850Y-179892527D01*
X310044568Y-181025406D01*
X309805382Y-181947712D01*
X309637327Y-182597600D01*
X309556437Y-182913223D01*
X309551605Y-182933193D01*
X305665039Y-182933193D01*
X307273341Y-178649864D01*
X307750931Y-177371489D01*
X308173178Y-176228939D01*
X308518308Y-175282155D01*
X308764546Y-174591081D01*
X308890115Y-174215657D01*
X308901680Y-174167512D01*
X308712507Y-174075248D01*
X308241433Y-174024960D01*
X308070721Y-174021848D01*
X307239762Y-174021848D01*
X306256435Y-176707223D01*
X305893297Y-177712861D01*
X305590681Y-178577448D01*
X305376019Y-179220603D01*
X305276741Y-179561942D01*
X305273109Y-179588736D01*
X305124150Y-179781681D01*
X305091532Y-179784873D01*
X304947315Y-179596625D01*
X304714091Y-179092689D01*
X304431960Y-178364276D01*
X304293958Y-177970588D01*
X303677960Y-176156302D01*
X302785374Y-176156302D01*
X301892787Y-176156302D01*
X301422078Y-177597058D01*
X301168727Y-178334010D01*
X300948488Y-178906905D01*
X300807176Y-179196973D01*
X300802993Y-179201934D01*
X300690039Y-179072713D01*
X300485087Y-178603420D01*
X300215097Y-177863964D01*
X299907034Y-176924254D01*
X299835713Y-176693951D01*
X299016810Y-174021848D01*
X298196220Y-174021848D01*
X297673787Y-174055745D01*
X297391713Y-174140031D01*
X297375630Y-174169008D01*
X292339192Y-174169008D01*
X292164577Y-174096493D01*
X291214079Y-174100854D01*
X290329761Y-174502100D01*
X289518242Y-175187096D01*
X288987489Y-175997765D01*
X288655611Y-177066943D01*
X288612359Y-177287885D01*
X288506668Y-178696937D01*
X287770588Y-178696937D01*
X287770588Y-178610924D01*
X287770588Y-174235293D01*
X286916806Y-174235293D01*
X286063024Y-174235293D01*
X286050573Y-176423109D01*
X286038121Y-178610924D01*
X284934771Y-176423109D01*
X283831421Y-174235293D01*
X282919492Y-174235293D01*
X282007562Y-174235293D01*
X282007562Y-178610924D01*
X282007562Y-182986554D01*
X281367226Y-182986554D01*
X281367226Y-178610924D01*
X281367226Y-174235293D01*
X280513445Y-174235293D01*
X279659663Y-174235293D01*
X279659663Y-178610924D01*
X279659663Y-182986554D01*
X279019327Y-182986554D01*
X279019327Y-178610924D01*
X279019327Y-174235293D01*
X278213042Y-174235293D01*
X277791462Y-174252813D01*
X277504512Y-174361440D01*
X277269268Y-174645279D01*
X277002804Y-175188434D01*
X276792479Y-175676050D01*
X276469198Y-176407508D01*
X276192023Y-176987072D01*
X276016687Y-177298723D01*
X276007585Y-177309917D01*
X275849913Y-177220066D01*
X275575679Y-176814327D01*
X275234110Y-176170194D01*
X275092393Y-175869161D01*
X274720953Y-175072903D01*
X274450698Y-174589198D01*
X274210020Y-174340240D01*
X273927307Y-174248227D01*
X273588613Y-174235293D01*
X272829411Y-174235293D01*
X272829411Y-178610924D01*
X272829411Y-182986554D01*
X272189075Y-182986554D01*
X272189075Y-178610924D01*
X272189075Y-174235293D01*
X271342760Y-174235293D01*
X270496446Y-174235293D01*
X270435618Y-176423109D01*
X270374789Y-178610924D01*
X269252255Y-176423109D01*
X268129721Y-174235293D01*
X267277885Y-174235293D01*
X266426050Y-174235293D01*
X266426050Y-178610924D01*
X266426050Y-182986554D01*
X265785714Y-182986554D01*
X265785714Y-182132772D01*
X265785714Y-181278991D01*
X264505041Y-181278991D01*
X263224369Y-181278991D01*
X263224369Y-179891596D01*
X263224369Y-178610924D01*
X263224369Y-178504201D01*
X264184873Y-178504201D01*
X264775049Y-178488253D01*
X265054516Y-178380169D01*
X265139453Y-178089586D01*
X265145377Y-177757142D01*
X265124873Y-177298117D01*
X264985907Y-177080753D01*
X264612302Y-177014691D01*
X264184873Y-177010083D01*
X263594245Y-176991521D01*
X263314503Y-176884345D01*
X263229799Y-176611320D01*
X263224369Y-176369747D01*
X263224369Y-175729411D01*
X264505041Y-175729411D01*
X265785714Y-175729411D01*
X265785714Y-174846617D01*
X265785714Y-173963823D01*
X264795419Y-174099558D01*
X263959218Y-174181850D01*
X263013322Y-174230058D01*
X262660965Y-174235293D01*
X261516806Y-174235293D01*
X261516806Y-178610924D01*
X252765546Y-178610924D01*
X252765546Y-174235293D01*
X252765546Y-170499999D01*
X252765546Y-169966386D01*
X266639495Y-169966386D01*
X267333193Y-169965195D01*
X268011396Y-169904250D01*
X268772093Y-169756196D01*
X268880672Y-169727527D01*
X270076809Y-169219345D01*
X270948587Y-168441742D01*
X271309689Y-167867318D01*
X271752105Y-166580403D01*
X271823704Y-165590756D01*
X272615966Y-165590756D01*
X272615966Y-169966386D01*
X274643697Y-169966386D01*
X276671428Y-169966386D01*
X283074789Y-169966386D01*
X283928571Y-169966386D01*
X284782352Y-169966386D01*
X291826050Y-169966386D01*
X292673057Y-169966386D01*
X293520065Y-169966386D01*
X293580200Y-167458403D01*
X293640335Y-164950419D01*
X294916713Y-167458403D01*
X295439564Y-168476776D01*
X295819401Y-169174018D01*
X296104035Y-169610862D01*
X296341277Y-169848041D01*
X296578940Y-169946289D01*
X296864835Y-169966341D01*
X296891083Y-169966386D01*
X297589075Y-169966386D01*
X298167506Y-169966386D01*
X300332912Y-169966386D01*
X302498319Y-169966386D01*
X302498319Y-169112604D01*
X302498319Y-168258823D01*
X301217646Y-168258823D01*
X299936974Y-168258823D01*
X299936974Y-166871428D01*
X299936974Y-165484033D01*
X301004201Y-165484033D01*
X302071428Y-165484033D01*
X302071428Y-164736974D01*
X302071428Y-163989915D01*
X301004201Y-163989915D01*
X300372429Y-163975925D01*
X300057387Y-163889908D01*
X299948958Y-163665793D01*
X299936974Y-163349579D01*
X299936974Y-162709243D01*
X301217646Y-162709243D01*
X302498319Y-162709243D01*
X302498319Y-161857789D01*
X302498319Y-161006335D01*
X300523949Y-161140472D01*
X299660751Y-161201315D01*
X298980705Y-161253412D01*
X298579777Y-161289200D01*
X298513262Y-161298971D01*
X298495017Y-161509330D01*
X298465086Y-162082401D01*
X298426279Y-162954256D01*
X298381407Y-164060961D01*
X298333280Y-165338586D01*
X298322226Y-165644859D01*
X298167506Y-169966386D01*
X297589075Y-169966386D01*
X297589075Y-165590756D01*
X297589075Y-161215125D01*
X296742760Y-161215125D01*
X295896446Y-161215125D01*
X295835618Y-163402940D01*
X295774789Y-165590756D01*
X294652255Y-163402940D01*
X293529721Y-161215125D01*
X292677885Y-161215125D01*
X291826050Y-161215125D01*
X291826050Y-165590756D01*
X291826050Y-169966386D01*
X284782352Y-169966386D01*
X284782352Y-165590756D01*
X284782352Y-164769760D01*
X285503460Y-164769760D01*
X285505110Y-166200521D01*
X285798676Y-167490311D01*
X286353381Y-168571833D01*
X287138450Y-169377789D01*
X287770588Y-169727172D01*
X288383283Y-169920852D01*
X288892160Y-169904819D01*
X289410894Y-169738722D01*
X290211382Y-169335467D01*
X290696214Y-168801788D01*
X290927609Y-168038955D01*
X290972268Y-167261112D01*
X290972268Y-165910924D01*
X289691596Y-165910924D01*
X288410924Y-165910924D01*
X288410924Y-166657983D01*
X288450792Y-167163188D01*
X288630200Y-167370010D01*
X288944537Y-167405041D01*
X289372828Y-167530711D01*
X289458798Y-167842163D01*
X289178736Y-168241064D01*
X289151662Y-168264069D01*
X288685882Y-168409969D01*
X288162026Y-168217329D01*
X287682149Y-167743328D01*
X287439329Y-167304697D01*
X287161116Y-166327802D01*
X287115844Y-165590756D01*
X287100419Y-165339635D01*
X287228877Y-164407658D01*
X287518133Y-163599331D01*
X287939827Y-162982116D01*
X288465601Y-162623474D01*
X289067097Y-162590866D01*
X289371178Y-162709109D01*
X289807580Y-162876948D01*
X290146230Y-162757817D01*
X290329858Y-162604397D01*
X290675886Y-162221980D01*
X290686530Y-161921881D01*
X290338636Y-161601054D01*
X290065125Y-161426231D01*
X289100304Y-161048575D01*
X288156332Y-161060815D01*
X287282398Y-161426897D01*
X286527689Y-162110769D01*
X285941394Y-163076378D01*
X285572702Y-164287670D01*
X285503460Y-164769760D01*
X284782352Y-164769760D01*
X284782352Y-161215125D01*
X283928571Y-161215125D01*
X283074789Y-161215125D01*
X283074789Y-165590756D01*
X283074789Y-169966386D01*
X276671428Y-169966386D01*
X276671428Y-169112604D01*
X276671428Y-168258823D01*
X275497478Y-168258823D01*
X274323529Y-168258823D01*
X274323529Y-166871428D01*
X274323529Y-165484033D01*
X275284033Y-165484033D01*
X275874209Y-165468085D01*
X276153676Y-165360000D01*
X276238613Y-165069418D01*
X276244537Y-164736974D01*
X276224033Y-164277949D01*
X276085067Y-164060585D01*
X275711461Y-163994523D01*
X275284033Y-163989915D01*
X274693404Y-163971353D01*
X274413663Y-163864177D01*
X274381345Y-163760007D01*
X277486896Y-163760007D01*
X277544101Y-164425763D01*
X277698551Y-164978938D01*
X277720264Y-165022779D01*
X278184787Y-165531415D01*
X278886464Y-165931867D01*
X279635585Y-166120692D01*
X279740540Y-166124369D01*
X280260171Y-166254336D01*
X280714936Y-166564602D01*
X280937238Y-166935716D01*
X280940335Y-166979501D01*
X280870572Y-167303393D01*
X280743241Y-167682204D01*
X280414855Y-168169787D01*
X279982163Y-168389430D01*
X279565537Y-168339527D01*
X279285347Y-168018470D01*
X279232772Y-167702373D01*
X279166185Y-167312161D01*
X279046008Y-167191596D01*
X278720768Y-167152814D01*
X278198397Y-167059425D01*
X278192226Y-167058193D01*
X277732393Y-167001379D01*
X277553507Y-167145267D01*
X277525209Y-167495683D01*
X277708974Y-168425355D01*
X278201710Y-169178432D01*
X278915583Y-169698287D01*
X279762759Y-169928292D01*
X280655401Y-169811817D01*
X280933929Y-169693323D01*
X281612133Y-169144534D01*
X282138880Y-168339067D01*
X282415132Y-167443905D01*
X282434453Y-167163398D01*
X282236327Y-166254780D01*
X281730817Y-165590756D01*
X281668545Y-165508957D01*
X280770999Y-164968286D01*
X280193277Y-164783753D01*
X279550948Y-164598452D01*
X279217675Y-164392519D01*
X279080576Y-164080487D01*
X279057265Y-163923647D01*
X279131778Y-163236735D01*
X279526735Y-162824098D01*
X280098306Y-162709243D01*
X280628013Y-162839890D01*
X280833613Y-163136134D01*
X281066908Y-163450412D01*
X281567399Y-163560508D01*
X281701778Y-163563025D01*
X282207619Y-163515368D01*
X282409934Y-163324535D01*
X282434453Y-163114789D01*
X282267071Y-162646239D01*
X281848027Y-162098999D01*
X281301974Y-161595931D01*
X280753566Y-161259897D01*
X280481428Y-161189836D01*
X279296856Y-161281194D01*
X278398406Y-161681349D01*
X277798944Y-162379261D01*
X277511332Y-163363888D01*
X277486896Y-163760007D01*
X274381345Y-163760007D01*
X274328958Y-163591152D01*
X274323529Y-163349579D01*
X274343241Y-162983509D01*
X274472429Y-162792972D01*
X274816166Y-162720655D01*
X275479526Y-162709244D01*
X275497478Y-162709243D01*
X276671428Y-162709243D01*
X276671428Y-161827534D01*
X276671428Y-161001680D01*
X303073431Y-161001680D01*
X303211795Y-163402940D01*
X303272599Y-164671776D01*
X303320019Y-166067180D01*
X303347232Y-167368233D01*
X303351129Y-167914681D01*
X303352100Y-170025161D01*
X303852181Y-169966386D01*
X311676470Y-169966386D01*
X313010503Y-169965195D01*
X313870015Y-169929433D01*
X314680341Y-169838500D01*
X315107446Y-169752075D01*
X316034738Y-169325402D01*
X316618192Y-168648204D01*
X316869069Y-167705520D01*
X316881253Y-167396262D01*
X316794150Y-166515808D01*
X316540161Y-165987352D01*
X316537962Y-165985141D01*
X316341175Y-165733252D01*
X316335091Y-165454656D01*
X316530659Y-164999491D01*
X316623082Y-164819924D01*
X316938150Y-163815987D01*
X316855509Y-162861846D01*
X316403661Y-162031376D01*
X315611108Y-161398451D01*
X315441999Y-161321848D01*
X317702590Y-161321848D01*
X318527390Y-163883193D01*
X318904179Y-165107027D01*
X319149702Y-166066506D01*
X319289414Y-166894358D01*
X319348770Y-167723311D01*
X319356346Y-168205461D01*
X319360503Y-169966386D01*
X320214285Y-169966386D01*
X321068067Y-169966386D01*
X321080790Y-168952520D01*
X321130579Y-167986561D01*
X321270929Y-167028641D01*
X321526162Y-165973008D01*
X321920601Y-164713909D01*
X322310777Y-163604532D01*
X323185397Y-161191417D01*
X322292301Y-161256632D01*
X321763578Y-161319827D01*
X321445521Y-161482918D01*
X321215319Y-161854036D01*
X321006096Y-162389075D01*
X320752357Y-163025174D01*
X320530169Y-163493253D01*
X320437157Y-163635554D01*
X320284146Y-163551878D01*
X320068985Y-163150688D01*
X319891401Y-162675050D01*
X319625575Y-161904311D01*
X319397459Y-161461563D01*
X319124460Y-161265211D01*
X318723986Y-161233657D01*
X318452952Y-161253925D01*
X317702590Y-161321848D01*
X315441999Y-161321848D01*
X315237785Y-161229343D01*
X314714171Y-161111892D01*
X313939589Y-161029678D01*
X313156692Y-161001680D01*
X311676470Y-161001680D01*
X311676470Y-165484033D01*
X311676470Y-169966386D01*
X303852181Y-169966386D01*
X304567185Y-169882351D01*
X305431056Y-169711063D01*
X306274292Y-169434289D01*
X306633289Y-169265989D01*
X307485613Y-168562902D01*
X308083536Y-167599853D01*
X308419383Y-166465253D01*
X308472638Y-165484033D01*
X308485475Y-165247513D01*
X308274136Y-164035043D01*
X307777689Y-162916255D01*
X307244776Y-162223973D01*
X306571846Y-161737869D01*
X305634756Y-161334602D01*
X304595493Y-161071892D01*
X303814361Y-161001680D01*
X303073431Y-161001680D01*
X276671428Y-161001680D01*
X276671428Y-160945825D01*
X275871008Y-161078126D01*
X275186575Y-161154589D01*
X274324283Y-161203524D01*
X273843277Y-161212776D01*
X272615966Y-161215125D01*
X272615966Y-165590756D01*
X271823704Y-165590756D01*
X271847301Y-165264604D01*
X271617069Y-164001409D01*
X271083203Y-162872304D01*
X270267496Y-161958779D01*
X269614429Y-161528415D01*
X269061730Y-161328658D01*
X268566531Y-161215125D01*
X268297675Y-161153485D01*
X267831828Y-161083040D01*
X266639495Y-160942905D01*
X266639495Y-165454645D01*
X266639495Y-169966386D01*
X252765546Y-169966386D01*
X252765546Y-165454645D01*
X252765546Y-153957983D01*
X292999999Y-153957983D01*
X333234453Y-153957983D01*
X333234453Y-170499999D01*
G37*
G36*
X207843709Y-148773787D02*
G01*
X207877591Y-148834258D01*
X208011141Y-149256220D01*
X208002471Y-149797389D01*
X207845610Y-150506767D01*
X207573953Y-151326357D01*
X207285845Y-152040151D01*
X206928044Y-152811997D01*
X206529203Y-153592146D01*
X206117974Y-154330852D01*
X205723007Y-154978368D01*
X205372955Y-155484948D01*
X205096468Y-155800844D01*
X204949650Y-155882871D01*
X204718596Y-155767651D01*
X204669721Y-155535074D01*
X204741976Y-155271856D01*
X204938955Y-154808680D01*
X205230981Y-154209804D01*
X205588375Y-153539486D01*
X205606081Y-153507664D01*
X206081522Y-152640821D01*
X206428901Y-151960793D01*
X206677851Y-151392126D01*
X206858000Y-150859367D01*
X206998979Y-150287063D01*
X207121902Y-149647630D01*
X207275636Y-148978155D01*
X207445299Y-148611383D01*
X207633715Y-148544274D01*
X207843709Y-148773787D01*
G37*
G36*
X214159208Y-150490120D02*
G01*
X214319587Y-150783550D01*
X214407157Y-151191436D01*
X214360574Y-151663589D01*
X214165475Y-152255236D01*
X213807501Y-153021606D01*
X213667423Y-153291527D01*
X213369939Y-153803101D01*
X212984307Y-154392889D01*
X212551144Y-155007308D01*
X212111069Y-155592770D01*
X211704699Y-156095693D01*
X211372654Y-156462489D01*
X211155550Y-156639575D01*
X211123227Y-156647932D01*
X210922349Y-156552507D01*
X210827967Y-156471479D01*
X210745593Y-156347603D01*
X210747131Y-156182686D01*
X210854705Y-155935921D01*
X211090435Y-155566502D01*
X211476443Y-155033621D01*
X211939082Y-154421866D01*
X212469911Y-153680995D01*
X212863359Y-153002099D01*
X213170926Y-152276020D01*
X213444111Y-151393605D01*
X213541878Y-151024739D01*
X213722111Y-150567095D01*
X213937839Y-150385802D01*
X214159208Y-150490120D01*
G37*
G36*
X175076644Y-82209678D02*
G01*
X175765126Y-82673608D01*
X176294080Y-83373759D01*
X176306528Y-83397425D01*
X176450493Y-83791512D01*
X176579663Y-84340510D01*
X176636267Y-84698027D01*
X176745022Y-85573835D01*
X178351649Y-86369521D01*
X178989042Y-86680533D01*
X179833437Y-87085725D01*
X180813815Y-87551392D01*
X181859157Y-88043830D01*
X182898441Y-88529333D01*
X183095022Y-88620641D01*
X183817640Y-88957324D01*
X184780262Y-89407980D01*
X185946401Y-89955427D01*
X187279571Y-90582479D01*
X188743283Y-91271952D01*
X190301049Y-92006661D01*
X191916383Y-92769423D01*
X193552796Y-93543051D01*
X194797049Y-94131933D01*
X203362329Y-98187791D01*
X203748254Y-97827498D01*
X204520774Y-97279483D01*
X205352443Y-96988229D01*
X206190672Y-96951209D01*
X206982873Y-97165899D01*
X207676459Y-97629774D01*
X208027921Y-98032991D01*
X208356788Y-98668760D01*
X208564990Y-99419011D01*
X208617558Y-100138791D01*
X208590895Y-100366586D01*
X208288639Y-101206442D01*
X207745465Y-101878053D01*
X206991745Y-102354785D01*
X206057848Y-102610004D01*
X206028390Y-102613831D01*
X205256261Y-102711185D01*
X204370780Y-105159377D01*
X203373001Y-107914781D01*
X202462833Y-110421453D01*
X201643288Y-112671138D01*
X200917379Y-114655582D01*
X200288116Y-116366527D01*
X199848685Y-117553353D01*
X199535535Y-118398208D01*
X199140234Y-119468371D01*
X198685654Y-120701711D01*
X198194667Y-122036100D01*
X197690145Y-123409406D01*
X197194960Y-124759500D01*
X197010602Y-125262792D01*
X195196220Y-130218015D01*
X195695345Y-130847732D01*
X196272336Y-131744115D01*
X196546638Y-132597220D01*
X196518148Y-133409535D01*
X196186759Y-134183552D01*
X195552366Y-134921760D01*
X195521519Y-134949828D01*
X194756413Y-135457940D01*
X193931147Y-135672006D01*
X193073833Y-135590996D01*
X192212588Y-135213880D01*
X192007563Y-135078588D01*
X191353457Y-134617531D01*
X189863698Y-135443046D01*
X188373938Y-136268560D01*
X188276817Y-138080836D01*
X188221915Y-138904048D01*
X188149194Y-139716648D01*
X188069142Y-140412094D01*
X188009046Y-140801034D01*
X187902638Y-141659024D01*
X187863820Y-142675531D01*
X187886478Y-143784691D01*
X187964497Y-144920639D01*
X188091761Y-146017511D01*
X188262157Y-147009442D01*
X188469569Y-147830568D01*
X188707883Y-148415024D01*
X188717468Y-148431687D01*
X189280483Y-149104851D01*
X190046265Y-149593133D01*
X190948729Y-149857838D01*
X191200130Y-149885448D01*
X191654337Y-149905001D01*
X192029598Y-149871524D01*
X192417220Y-149760545D01*
X192908513Y-149547595D01*
X193444179Y-149284041D01*
X194601120Y-148609311D01*
X195662359Y-147782520D01*
X196670067Y-146762851D01*
X197666414Y-145509489D01*
X198315143Y-144569558D01*
X198914555Y-143652621D01*
X199375034Y-142918515D01*
X199729997Y-142297194D01*
X200012859Y-141718613D01*
X200257036Y-141112725D01*
X200495944Y-140409484D01*
X200762999Y-139538846D01*
X200842624Y-139271511D01*
X201136984Y-138343257D01*
X201478253Y-137365810D01*
X201825346Y-136451768D01*
X202137176Y-135713735D01*
X202154618Y-135675890D01*
X202675242Y-134412981D01*
X202987972Y-133293518D01*
X203107405Y-132250830D01*
X203077176Y-131461741D01*
X203058093Y-130976320D01*
X203069008Y-130267227D01*
X203106905Y-129415028D01*
X203168772Y-128500291D01*
X203203107Y-128095476D01*
X203274989Y-127236365D01*
X203328877Y-126460005D01*
X203361286Y-125828647D01*
X203368733Y-125404543D01*
X203360649Y-125280462D01*
X203146631Y-123963007D01*
X202981012Y-122901960D01*
X202858177Y-122052505D01*
X202772511Y-121369831D01*
X202718399Y-120809125D01*
X202690224Y-120325573D01*
X202682372Y-119874363D01*
X202682381Y-119867611D01*
X202799258Y-118380081D01*
X203145045Y-117094291D01*
X203528939Y-116370304D01*
X205470722Y-116370304D01*
X205529139Y-117022526D01*
X205728675Y-117700436D01*
X206037789Y-118347272D01*
X206424935Y-118906272D01*
X206858572Y-119320673D01*
X207307154Y-119533713D01*
X207652944Y-119521834D01*
X207927245Y-119423532D01*
X208017374Y-119376351D01*
X208029854Y-119184912D01*
X207944207Y-118777286D01*
X207783437Y-118218316D01*
X207570550Y-117572843D01*
X207328549Y-116905713D01*
X207080438Y-116281766D01*
X206849223Y-115765847D01*
X206657906Y-115422797D01*
X206583984Y-115336016D01*
X206246065Y-115221778D01*
X205897814Y-115365950D01*
X205615026Y-115733289D01*
X205584970Y-115800532D01*
X205470722Y-116370304D01*
X203528939Y-116370304D01*
X203719433Y-116011051D01*
X204461479Y-115183511D01*
X205215093Y-114637091D01*
X205935858Y-114333842D01*
X206588988Y-114280023D01*
X207139697Y-114481891D01*
X207350447Y-114663838D01*
X207614908Y-115060033D01*
X207927713Y-115710130D01*
X208274325Y-116568538D01*
X208640206Y-117589664D01*
X209010819Y-118727917D01*
X209371625Y-119937705D01*
X209708088Y-121173436D01*
X210005669Y-122389518D01*
X210249832Y-123540359D01*
X210341998Y-124045738D01*
X210464207Y-124738502D01*
X210572051Y-125311199D01*
X210653424Y-125702005D01*
X210694993Y-125848304D01*
X210749282Y-125741574D01*
X210836043Y-125410138D01*
X210918327Y-125017365D01*
X211075409Y-124107414D01*
X211169131Y-123291580D01*
X211199850Y-122488890D01*
X211167919Y-121618374D01*
X211073694Y-120599060D01*
X210942341Y-119535906D01*
X210761782Y-117985554D01*
X210668639Y-116686570D01*
X210664469Y-115596592D01*
X210750830Y-114673256D01*
X210929279Y-113874197D01*
X211174624Y-113215739D01*
X211766172Y-112229638D01*
X212548506Y-111447578D01*
X213481362Y-110906904D01*
X213780802Y-110798535D01*
X214498257Y-110656666D01*
X215078874Y-110742402D01*
X215543441Y-111073032D01*
X215912744Y-111665847D01*
X216207572Y-112538135D01*
X216291224Y-112886486D01*
X216438575Y-113533045D01*
X216548273Y-113937186D01*
X216646627Y-114155755D01*
X216759948Y-114245597D01*
X216914546Y-114263560D01*
X216928595Y-114263594D01*
X217551914Y-114408920D01*
X218094482Y-114820324D01*
X218518885Y-115460942D01*
X218728593Y-116037065D01*
X218960129Y-117008300D01*
X219204588Y-118217002D01*
X219451530Y-119595508D01*
X219690515Y-121076152D01*
X219911101Y-122591272D01*
X220102848Y-124073204D01*
X220255315Y-125454284D01*
X220349255Y-126540177D01*
X220428716Y-127620342D01*
X220511889Y-128701682D01*
X220592750Y-129709288D01*
X220665275Y-130568248D01*
X220723440Y-131203652D01*
X220727826Y-131247932D01*
X220860700Y-132658791D01*
X220945834Y-133836505D01*
X220978033Y-134850977D01*
X220952102Y-135772115D01*
X220862848Y-136669823D01*
X220705076Y-137614007D01*
X220473592Y-138674572D01*
X220163202Y-139921425D01*
X220051337Y-140352148D01*
X219775896Y-141450959D01*
X219506498Y-142622824D01*
X219233830Y-143913620D01*
X218948578Y-145369226D01*
X218641429Y-147035519D01*
X218303070Y-148958377D01*
X218296341Y-148997329D01*
X218045411Y-150403525D01*
X217813904Y-151565251D01*
X217581734Y-152541498D01*
X217328816Y-153391259D01*
X217035063Y-154173527D01*
X216680389Y-154947294D01*
X216244709Y-155771552D01*
X215707937Y-156705293D01*
X215622847Y-156849347D01*
X215199121Y-157588297D01*
X214742295Y-158421223D01*
X214344554Y-159179695D01*
X214310387Y-159247333D01*
X214081915Y-159678528D01*
X213721496Y-160329603D01*
X213253717Y-161157481D01*
X212703165Y-162119081D01*
X212094426Y-163171326D01*
X211452087Y-164271136D01*
X211150500Y-164783870D01*
X210072089Y-166632665D01*
X209077691Y-168376811D01*
X208180683Y-169991413D01*
X207394440Y-171451574D01*
X206732337Y-172732400D01*
X206207750Y-173808995D01*
X205834055Y-174656465D01*
X205798656Y-174744953D01*
X205424409Y-175815480D01*
X205047332Y-177118762D01*
X204685685Y-178582255D01*
X204357727Y-180133417D01*
X204142388Y-181325438D01*
X203958372Y-182355212D01*
X203778756Y-183170930D01*
X203578508Y-183863140D01*
X203332602Y-184522394D01*
X203128314Y-184994119D01*
X202778246Y-185815518D01*
X202405711Y-186762351D01*
X202075960Y-187666870D01*
X201989779Y-187921051D01*
X201677293Y-188803599D01*
X201406496Y-189419038D01*
X201158180Y-189800165D01*
X200913136Y-189979775D01*
X200769412Y-190004558D01*
X200605284Y-189900123D01*
X200543141Y-189556610D01*
X200541415Y-189430763D01*
X200600028Y-188967534D01*
X200775717Y-188300420D01*
X201074045Y-187413101D01*
X201500575Y-186289255D01*
X202060868Y-184912560D01*
X202171109Y-184649136D01*
X202910083Y-182889498D01*
X202847275Y-180976847D01*
X202802970Y-179579980D01*
X202773112Y-178450914D01*
X202760241Y-177551657D01*
X202766893Y-176844217D01*
X202795607Y-176290603D01*
X202848921Y-175852823D01*
X202929373Y-175492886D01*
X203039499Y-175172799D01*
X203181840Y-174854571D01*
X203267904Y-174680256D01*
X203588292Y-174113732D01*
X204033932Y-173418896D01*
X204534359Y-172702694D01*
X204830542Y-172308569D01*
X205726870Y-171150870D01*
X206465299Y-170185796D01*
X207078647Y-169366644D01*
X207599734Y-168646712D01*
X208061378Y-167979298D01*
X208496398Y-167317700D01*
X208937614Y-166615216D01*
X209417844Y-165825143D01*
X209599213Y-165522630D01*
X210442031Y-164103420D01*
X211145880Y-162896955D01*
X211705801Y-161912135D01*
X212116837Y-161157861D01*
X212374029Y-160643034D01*
X212472419Y-160376555D01*
X212473336Y-160363266D01*
X212345677Y-160199775D01*
X212167312Y-160122874D01*
X211932347Y-159994783D01*
X211893799Y-159763679D01*
X212061318Y-159400462D01*
X212444553Y-158876029D01*
X212671988Y-158600895D01*
X213525731Y-157590650D01*
X214206333Y-156778364D01*
X214738084Y-156128172D01*
X215145270Y-155604213D01*
X215452180Y-155170623D01*
X215683102Y-154791538D01*
X215862324Y-154431094D01*
X216014135Y-154053429D01*
X216162821Y-153622678D01*
X216274368Y-153281666D01*
X216452495Y-152701736D01*
X216616939Y-152086167D01*
X216777131Y-151388536D01*
X216942503Y-150562416D01*
X217122484Y-149561386D01*
X217326507Y-148339019D01*
X217504853Y-147224516D01*
X217703666Y-146069481D01*
X217958700Y-144741189D01*
X218244970Y-143361437D01*
X218537493Y-142052023D01*
X218728754Y-141257866D01*
X219097457Y-139771267D01*
X219393048Y-138523196D01*
X219619835Y-137456113D01*
X219782125Y-136512477D01*
X219884227Y-135634746D01*
X219930450Y-134765382D01*
X219925101Y-133846842D01*
X219872489Y-132821587D01*
X219776922Y-131632075D01*
X219642709Y-130220765D01*
X219592791Y-129717811D01*
X219495882Y-128690479D01*
X219392233Y-127500145D01*
X219293801Y-126289263D01*
X219212544Y-125200284D01*
X219207472Y-125127450D01*
X219139730Y-124244946D01*
X219063902Y-123414214D01*
X218987597Y-122709264D01*
X218918424Y-122204107D01*
X218892868Y-122067209D01*
X218702519Y-121365225D01*
X218475346Y-120786282D01*
X218239443Y-120388898D01*
X218022906Y-120231590D01*
X218011310Y-120231064D01*
X217927351Y-120265435D01*
X217870932Y-120396003D01*
X217839991Y-120663956D01*
X217832465Y-121110478D01*
X217846293Y-121776756D01*
X217879411Y-122703975D01*
X217882965Y-122794016D01*
X217932324Y-123904270D01*
X217996280Y-125149256D01*
X218067360Y-126392953D01*
X218138088Y-127499343D01*
X218154132Y-127728654D01*
X218233140Y-129253283D01*
X218256277Y-130771821D01*
X218225646Y-132219677D01*
X218143350Y-133532265D01*
X218011493Y-134644995D01*
X217911417Y-135181094D01*
X217777279Y-135743694D01*
X217582683Y-136508680D01*
X217351541Y-137384275D01*
X217107767Y-138278701D01*
X217054266Y-138470853D01*
X216660803Y-139928368D01*
X216289075Y-141401364D01*
X215952014Y-142832088D01*
X215662550Y-144162786D01*
X215433612Y-145335704D01*
X215278131Y-146293088D01*
X215245226Y-146551191D01*
X215108217Y-147503377D01*
X214951293Y-148182025D01*
X214778407Y-148580012D01*
X214593515Y-148690215D01*
X214400572Y-148505512D01*
X214290448Y-148270522D01*
X214172578Y-147737274D01*
X214156658Y-146991027D01*
X214244585Y-146020955D01*
X214438258Y-144816234D01*
X214739575Y-143366037D01*
X215150435Y-141659539D01*
X215672736Y-139685915D01*
X216004773Y-138494714D01*
X216292975Y-137471303D01*
X216551333Y-136544176D01*
X216768659Y-135754278D01*
X216933764Y-135142553D01*
X217035460Y-134749945D01*
X217063697Y-134619595D01*
X216932273Y-134500046D01*
X216589005Y-134318791D01*
X216145955Y-134130307D01*
X215351733Y-133787813D01*
X214857699Y-133492192D01*
X214661862Y-133241964D01*
X214720700Y-133071298D01*
X215019826Y-132980214D01*
X215548929Y-133059235D01*
X216286528Y-133304054D01*
X216667417Y-133461382D01*
X217265714Y-133720707D01*
X217159851Y-129921367D01*
X217086305Y-127592000D01*
X217002728Y-125545401D01*
X216907533Y-123758430D01*
X216799131Y-122207948D01*
X216675935Y-120870815D01*
X216536358Y-119723892D01*
X216401701Y-118870290D01*
X216064408Y-116973974D01*
X215327328Y-116786822D01*
X214565670Y-116514310D01*
X214336182Y-116353411D01*
X216970327Y-116353411D01*
X217043334Y-117020058D01*
X217140763Y-117532710D01*
X217380189Y-118387904D01*
X217662267Y-118972807D01*
X217979108Y-119273526D01*
X218151733Y-119312992D01*
X218266609Y-119186567D01*
X218286638Y-119045221D01*
X218239632Y-118487045D01*
X218120508Y-117774258D01*
X217956432Y-117035953D01*
X217774574Y-116401222D01*
X217674996Y-116138913D01*
X217424942Y-115678560D01*
X217219396Y-115496060D01*
X217068410Y-115565186D01*
X216982036Y-115859711D01*
X216970327Y-116353411D01*
X214336182Y-116353411D01*
X213985226Y-116107348D01*
X213556362Y-115525074D01*
X213249445Y-114726628D01*
X213034844Y-113671149D01*
X213026482Y-113614194D01*
X212955355Y-113122793D01*
X213697432Y-113122793D01*
X213776001Y-113929473D01*
X213990801Y-114678132D01*
X214310468Y-115315737D01*
X214703641Y-115789253D01*
X215138957Y-116045646D01*
X215439919Y-116069363D01*
X215638337Y-116001681D01*
X215721664Y-115817748D01*
X215722011Y-115432038D01*
X215715745Y-115334679D01*
X215653947Y-114815543D01*
X215540165Y-114170987D01*
X215393124Y-113480595D01*
X215231553Y-112823950D01*
X215074179Y-112280635D01*
X214939729Y-111930236D01*
X214899302Y-111865126D01*
X214584556Y-111646272D01*
X214269759Y-111692009D01*
X213992308Y-111963202D01*
X213789601Y-112420717D01*
X213699035Y-113025421D01*
X213697432Y-113122793D01*
X212955355Y-113122793D01*
X212843636Y-112350944D01*
X212435692Y-112962992D01*
X212074769Y-113668618D01*
X211784064Y-114546080D01*
X211600773Y-115462979D01*
X211556165Y-116093633D01*
X211580438Y-116553074D01*
X211644758Y-117206047D01*
X211737653Y-117944430D01*
X211792237Y-118318413D01*
X211970640Y-119502991D01*
X212100111Y-120448455D01*
X212182978Y-121217393D01*
X212221565Y-121872392D01*
X212218199Y-122476041D01*
X212175206Y-123090926D01*
X212094910Y-123779635D01*
X212016343Y-124349078D01*
X211774584Y-126100798D01*
X211585413Y-127607754D01*
X211443823Y-128925736D01*
X211344805Y-130110536D01*
X211283350Y-131217943D01*
X211254452Y-132303748D01*
X211250628Y-132878984D01*
X211248313Y-133727760D01*
X211235870Y-134400103D01*
X211203435Y-134966782D01*
X211141143Y-135498564D01*
X211039128Y-136066217D01*
X210887526Y-136740509D01*
X210676472Y-137592207D01*
X210493425Y-138310912D01*
X210223283Y-139392108D01*
X209947902Y-140535420D01*
X209689323Y-141646489D01*
X209469589Y-142630953D01*
X209337502Y-143259377D01*
X209136458Y-144232494D01*
X208974008Y-144942941D01*
X208836884Y-145429642D01*
X208711816Y-145731525D01*
X208585535Y-145887516D01*
X208444771Y-145936542D01*
X208424712Y-145937088D01*
X208240957Y-145859306D01*
X208129619Y-145615049D01*
X208092871Y-145187955D01*
X208132887Y-144561660D01*
X208251841Y-143719802D01*
X208451904Y-142646016D01*
X208735252Y-141323939D01*
X209104058Y-139737208D01*
X209422001Y-138428731D01*
X209671630Y-137413867D01*
X209895068Y-136501965D01*
X210082441Y-135733618D01*
X210223873Y-135149417D01*
X210309488Y-134789955D01*
X210331167Y-134691668D01*
X210194803Y-134589743D01*
X209848741Y-134477260D01*
X209387528Y-134376626D01*
X208905709Y-134310248D01*
X208663455Y-134296413D01*
X208063319Y-134244463D01*
X207463898Y-134130624D01*
X207347432Y-134098199D01*
X206735384Y-133911744D01*
X207162216Y-133629361D01*
X207471945Y-133470284D01*
X207831882Y-133408219D01*
X208351313Y-133428708D01*
X208539324Y-133447175D01*
X209128498Y-133517390D01*
X209659962Y-133594330D01*
X209934686Y-133644232D01*
X210379770Y-133741091D01*
X210278954Y-132429511D01*
X210140949Y-130841395D01*
X209969551Y-129203734D01*
X209771993Y-127566104D01*
X209555508Y-125978080D01*
X209327327Y-124489238D01*
X209094684Y-123149154D01*
X208864811Y-122007405D01*
X208644940Y-121113565D01*
X208610951Y-120996124D01*
X208473684Y-120585687D01*
X208313297Y-120372128D01*
X208029048Y-120275115D01*
X207647295Y-120227699D01*
X206730545Y-120005522D01*
X206011788Y-119551418D01*
X205632685Y-119107201D01*
X205370857Y-118629581D01*
X205120478Y-118031540D01*
X204924748Y-117432483D01*
X204826866Y-116951815D01*
X204822733Y-116868482D01*
X204781375Y-116554501D01*
X204670953Y-116493499D01*
X204511946Y-116645824D01*
X204324835Y-116971824D01*
X204130097Y-117431848D01*
X203948213Y-117986243D01*
X203799662Y-118595358D01*
X203734295Y-118975907D01*
X203685697Y-119409565D01*
X203667386Y-119861286D01*
X203683361Y-120379280D01*
X203737620Y-121011756D01*
X203834160Y-121806924D01*
X203976981Y-122812991D01*
X204142924Y-123903353D01*
X204298077Y-125266555D01*
X204310248Y-126488892D01*
X204289892Y-126810582D01*
X204250533Y-127396641D01*
X204205183Y-128209036D01*
X204157813Y-129168238D01*
X204112393Y-130194721D01*
X204079848Y-131018413D01*
X203971902Y-133925642D01*
X203106623Y-135914799D01*
X202718233Y-136858967D01*
X202315990Y-137923045D01*
X201949606Y-138970905D01*
X201688637Y-139797760D01*
X201427027Y-140664399D01*
X201180697Y-141391444D01*
X200917700Y-142046751D01*
X200606086Y-142698178D01*
X200213908Y-143413585D01*
X199709216Y-144260828D01*
X199199335Y-145084991D01*
X198044567Y-146901122D01*
X197004163Y-148461745D01*
X196060643Y-149787519D01*
X195196522Y-150899101D01*
X194394320Y-151817148D01*
X193636553Y-152562319D01*
X192905739Y-153155270D01*
X192184396Y-153616659D01*
X191818863Y-153805888D01*
X191033291Y-154141699D01*
X190394148Y-154314202D01*
X189928627Y-154352751D01*
X189449005Y-154324984D01*
X189102897Y-154201462D01*
X188752142Y-153921859D01*
X188598859Y-153772108D01*
X188266547Y-153382823D01*
X188003861Y-152926938D01*
X187798892Y-152359126D01*
X187639729Y-151634061D01*
X187514465Y-150706416D01*
X187411190Y-149530865D01*
X187384540Y-149150341D01*
X187310698Y-148188269D01*
X187219066Y-147201408D01*
X187120013Y-146290732D01*
X187023904Y-145557213D01*
X186999626Y-145401546D01*
X186876309Y-144567781D01*
X186805390Y-143833263D01*
X186788094Y-143118896D01*
X186825649Y-142345581D01*
X186919281Y-141434220D01*
X187070217Y-140305715D01*
X187079674Y-140239492D01*
X187208557Y-139283752D01*
X187285654Y-138534840D01*
X187314856Y-137898665D01*
X187300056Y-137281140D01*
X187245144Y-136588175D01*
X187234981Y-136484824D01*
X186977401Y-134697422D01*
X186583401Y-133064738D01*
X186068334Y-131647885D01*
X186039930Y-131586063D01*
X187298363Y-131586063D01*
X187302225Y-131679084D01*
X187380593Y-131929587D01*
X187512352Y-132401757D01*
X187676906Y-133020318D01*
X187801787Y-133504859D01*
X187972897Y-134147750D01*
X188124633Y-134663558D01*
X188238008Y-134990842D01*
X188287314Y-135075729D01*
X188452696Y-135011418D01*
X188824756Y-134836787D01*
X189338704Y-134582782D01*
X189648684Y-134425428D01*
X190923430Y-133772630D01*
X190827521Y-133166327D01*
X190760207Y-132778766D01*
X190709447Y-132552630D01*
X190700365Y-132532051D01*
X190550995Y-132478341D01*
X190167495Y-132352834D01*
X189608054Y-132174292D01*
X188935342Y-131962881D01*
X188194353Y-131737134D01*
X187701814Y-131603825D01*
X187416794Y-131555838D01*
X187298363Y-131586063D01*
X186039930Y-131586063D01*
X185961363Y-131415062D01*
X185480277Y-130406365D01*
X185395018Y-132242754D01*
X185327420Y-133233353D01*
X185215925Y-133978126D01*
X185039630Y-134536405D01*
X184777632Y-134967521D01*
X184409029Y-135330808D01*
X184268721Y-135439768D01*
X183757867Y-135660322D01*
X183063153Y-135742596D01*
X182274188Y-135685661D01*
X181480578Y-135488591D01*
X181426275Y-135469198D01*
X181021379Y-135332635D01*
X180758008Y-135265168D01*
X180709086Y-135265997D01*
X180662712Y-135431737D01*
X180582912Y-135831248D01*
X180481060Y-136395575D01*
X180368530Y-137055759D01*
X180256695Y-137742845D01*
X180156928Y-138387878D01*
X180080604Y-138921900D01*
X180039097Y-139275955D01*
X180034781Y-139354162D01*
X180084636Y-139601200D01*
X180292630Y-139621862D01*
X180379059Y-139599124D01*
X181226475Y-139384687D01*
X182043795Y-139235118D01*
X182757919Y-139159537D01*
X183295748Y-139167067D01*
X183491968Y-139210713D01*
X183783890Y-139339379D01*
X183818319Y-139446303D01*
X183654705Y-139587454D01*
X183323975Y-139743073D01*
X182856788Y-139869737D01*
X182736633Y-139890630D01*
X181669141Y-140070328D01*
X180893707Y-140243451D01*
X180396528Y-140413369D01*
X180248200Y-140498012D01*
X180060365Y-140661631D01*
X180075387Y-140813529D01*
X180265324Y-141041835D01*
X180423164Y-141191392D01*
X180613345Y-141285133D01*
X180901415Y-141332716D01*
X181352923Y-141343803D01*
X182033418Y-141328055D01*
X182175943Y-141323426D01*
X182906020Y-141305623D01*
X183381058Y-141313753D01*
X183651361Y-141353312D01*
X183767230Y-141429797D01*
X183783577Y-141499072D01*
X183640506Y-141729834D01*
X183246753Y-141911876D01*
X182655511Y-142032697D01*
X181919971Y-142079800D01*
X181378313Y-142064242D01*
X180197147Y-141988354D01*
X180282691Y-144383504D01*
X180311352Y-145426614D01*
X180309484Y-146262981D01*
X180271663Y-146990855D01*
X180192465Y-147708485D01*
X180066465Y-148514121D01*
X180049087Y-148614799D01*
X179722513Y-150788461D01*
X179529074Y-152839731D01*
X179469145Y-154847389D01*
X179543102Y-156890215D01*
X179751321Y-159046992D01*
X180094177Y-161396499D01*
X180110491Y-161494375D01*
X180308630Y-162632716D01*
X180496877Y-163553071D01*
X180703592Y-164322417D01*
X180957132Y-165007735D01*
X181285856Y-165676003D01*
X181718124Y-166394199D01*
X182282294Y-167229304D01*
X182917381Y-168123835D01*
X183900128Y-169565123D01*
X184672663Y-170872587D01*
X185260806Y-172107181D01*
X185690377Y-173329861D01*
X185987197Y-174601583D01*
X186154260Y-175765316D01*
X186237080Y-177361824D01*
X186151985Y-179143096D01*
X185896870Y-181124541D01*
X185469628Y-183321568D01*
X184868154Y-185749589D01*
X184712627Y-186314896D01*
X184510485Y-187027717D01*
X184335710Y-187625482D01*
X184205443Y-188050879D01*
X184136826Y-188246599D01*
X184133099Y-188252425D01*
X183960029Y-188240429D01*
X183584016Y-188131019D01*
X183080882Y-187953042D01*
X182526449Y-187735344D01*
X181996539Y-187506770D01*
X181566973Y-187296167D01*
X181460140Y-187235516D01*
X180977483Y-186913446D01*
X180470282Y-186524270D01*
X180024250Y-186138848D01*
X179725100Y-185828038D01*
X179678418Y-185762560D01*
X179684234Y-185562530D01*
X179772067Y-185130970D01*
X179927703Y-184526848D01*
X180136931Y-183809134D01*
X180192113Y-183631087D01*
X180765645Y-181727045D01*
X181218081Y-180046545D01*
X181559408Y-178536601D01*
X181799610Y-177144224D01*
X181948673Y-175816429D01*
X182016581Y-174500227D01*
X182023323Y-173913500D01*
X181984383Y-172476119D01*
X181852263Y-171218506D01*
X181605506Y-170022929D01*
X181222653Y-168771656D01*
X180950788Y-168028793D01*
X180512470Y-166872288D01*
X180157726Y-165899150D01*
X179872554Y-165049983D01*
X179642951Y-164265392D01*
X179454911Y-163485981D01*
X179294434Y-162652354D01*
X179147514Y-161705117D01*
X179000148Y-160584872D01*
X178838334Y-159232224D01*
X178800798Y-158909554D01*
X178623779Y-157220476D01*
X178516876Y-155754146D01*
X178480891Y-154435241D01*
X178516626Y-153188438D01*
X178624882Y-151938415D01*
X178806462Y-150609848D01*
X178894908Y-150068413D01*
X179168183Y-148171541D01*
X179309861Y-146423738D01*
X179325478Y-144700497D01*
X179220575Y-142877311D01*
X179216765Y-142832950D01*
X179154061Y-142149427D01*
X179097600Y-141718958D01*
X179030271Y-141489465D01*
X178934963Y-141408869D01*
X178794563Y-141425094D01*
X178757729Y-141435934D01*
X178530753Y-141534953D01*
X178077684Y-141756599D01*
X177442031Y-142078704D01*
X176667303Y-142479101D01*
X175797009Y-142935623D01*
X175367914Y-143162964D01*
X172307673Y-144789498D01*
X172198918Y-145665306D01*
X171952434Y-146701391D01*
X171504088Y-147516945D01*
X170864790Y-148101473D01*
X170045450Y-148444477D01*
X169212661Y-148538293D01*
X168357874Y-148397287D01*
X167623412Y-147995252D01*
X167039637Y-147363660D01*
X166636915Y-146533984D01*
X166458241Y-145683228D01*
X166369440Y-144822835D01*
X164824701Y-144091880D01*
X164141659Y-143775766D01*
X163685785Y-143586521D01*
X163412273Y-143510723D01*
X163276319Y-143534952D01*
X163236681Y-143616175D01*
X163239199Y-143847349D01*
X163273471Y-144326553D01*
X163334523Y-144998003D01*
X163417381Y-145805916D01*
X163491400Y-146472714D01*
X163639875Y-147657117D01*
X163788585Y-148593699D01*
X163948737Y-149340464D01*
X164131537Y-149955417D01*
X164200925Y-150145003D01*
X164451844Y-150917775D01*
X164603787Y-151718854D01*
X164682292Y-152669618D01*
X164776244Y-153660545D01*
X164966287Y-154854754D01*
X165238922Y-156169797D01*
X165294088Y-156406081D01*
X165509363Y-157337580D01*
X165656512Y-158059348D01*
X165746054Y-158657399D01*
X165788504Y-159217749D01*
X165794382Y-159826413D01*
X165780528Y-160384394D01*
X165753882Y-161078045D01*
X165709584Y-161612029D01*
X165622783Y-162057605D01*
X165468630Y-162486031D01*
X165222274Y-162968566D01*
X164858864Y-163576467D01*
X164427815Y-164263294D01*
X163919028Y-165069620D01*
X164271903Y-165823024D01*
X164450618Y-166249632D01*
X164546603Y-166641433D01*
X164574384Y-167107055D01*
X164548492Y-167755124D01*
X164542655Y-167847421D01*
X164453634Y-168704308D01*
X164300070Y-169657572D01*
X164101008Y-170621277D01*
X163875491Y-171509483D01*
X163642562Y-172236254D01*
X163491589Y-172590573D01*
X163173852Y-173059865D01*
X162754248Y-173496254D01*
X162669326Y-173565059D01*
X162340696Y-173860220D01*
X162150927Y-174116820D01*
X162132372Y-174185972D01*
X162155528Y-174378257D01*
X162171883Y-174397329D01*
X162439195Y-174458197D01*
X162901554Y-174618345D01*
X163478374Y-174844091D01*
X164089074Y-175101755D01*
X164653068Y-175357653D01*
X165089773Y-175578104D01*
X165281693Y-175697149D01*
X165485605Y-175856209D01*
X165659380Y-176013969D01*
X165813034Y-176200009D01*
X165956580Y-176443910D01*
X166100032Y-176775251D01*
X166253405Y-177223613D01*
X166426713Y-177818575D01*
X166629968Y-178589718D01*
X166873187Y-179566622D01*
X167166382Y-180778868D01*
X167519568Y-182256034D01*
X167561198Y-182430462D01*
X167769574Y-183307873D01*
X167913834Y-183939753D01*
X168001210Y-184378162D01*
X168038931Y-184675159D01*
X168034226Y-184882803D01*
X167994327Y-185053156D01*
X167944544Y-185190691D01*
X167777221Y-185465501D01*
X167586476Y-185465013D01*
X167370435Y-185184648D01*
X167127224Y-184619829D01*
X166854969Y-183765978D01*
X166551796Y-182618516D01*
X166215830Y-181172866D01*
X166119731Y-180733032D01*
X165840230Y-179481824D01*
X165593887Y-178495178D01*
X165364440Y-177735649D01*
X165135626Y-177165791D01*
X164891181Y-176748159D01*
X164614844Y-176445308D01*
X164290349Y-176219792D01*
X164121528Y-176132240D01*
X163720138Y-175950050D01*
X163452404Y-175848577D01*
X163392865Y-175840823D01*
X163426297Y-175989873D01*
X163555490Y-176329071D01*
X163671136Y-176599907D01*
X163888486Y-177260885D01*
X163886575Y-177788341D01*
X163656229Y-178303053D01*
X163207045Y-178880800D01*
X162597840Y-179455935D01*
X162002996Y-179890596D01*
X160885778Y-180497804D01*
X159510672Y-181066387D01*
X157924163Y-181589474D01*
X156172734Y-182060194D01*
X154302870Y-182471675D01*
X152361055Y-182817047D01*
X150393773Y-183089439D01*
X148447509Y-183281979D01*
X146568747Y-183387797D01*
X144803971Y-183400022D01*
X143199665Y-183311782D01*
X141802313Y-183116207D01*
X141172351Y-182969655D01*
X140674958Y-182753930D01*
X140155320Y-182403306D01*
X139685411Y-181983222D01*
X139337206Y-181559114D01*
X139182678Y-181196422D01*
X139180565Y-181158739D01*
X139256514Y-180825597D01*
X139444741Y-180398617D01*
X139501703Y-180297039D01*
X139696818Y-179929312D01*
X139707460Y-179782181D01*
X139520307Y-179851226D01*
X139122036Y-180132028D01*
X139086267Y-180159225D01*
X138589510Y-180598859D01*
X138222460Y-181084478D01*
X137978087Y-181656600D01*
X137849360Y-182355742D01*
X137829250Y-183222425D01*
X137910727Y-184297166D01*
X138086760Y-185620484D01*
X138111101Y-185779765D01*
X138293389Y-187083314D01*
X138392530Y-188094361D01*
X138408568Y-188814908D01*
X138341547Y-189246953D01*
X138191509Y-189392494D01*
X138189514Y-189392510D01*
X137954424Y-189305965D01*
X137750427Y-189027810D01*
X137567627Y-188530264D01*
X137396132Y-187785544D01*
X137226047Y-186765868D01*
X137206495Y-186632237D01*
X137012528Y-185248779D01*
X136873156Y-184126846D01*
X136789301Y-183226685D01*
X136761882Y-182508541D01*
X136791822Y-181932659D01*
X136880041Y-181459284D01*
X137027460Y-181048663D01*
X137235000Y-180661040D01*
X137348960Y-180482453D01*
X137701406Y-180051697D01*
X138205813Y-179556828D01*
X138757302Y-179100120D01*
X138795540Y-179071796D01*
X139258125Y-178720773D01*
X139605818Y-178435194D01*
X139779868Y-178264053D01*
X139789479Y-178242948D01*
X139743154Y-178074576D01*
X139615622Y-177660277D01*
X139421088Y-177044896D01*
X139173759Y-176273276D01*
X138887838Y-175390261D01*
X138813633Y-175162389D01*
X137920845Y-172423814D01*
X143334170Y-172423814D01*
X143392191Y-172721338D01*
X143563097Y-173139894D01*
X143725350Y-173724321D01*
X143822277Y-174583359D01*
X143846435Y-175162389D01*
X143868791Y-175759783D01*
X143917429Y-176276130D01*
X144008673Y-176786891D01*
X144158847Y-177367528D01*
X144384277Y-178093501D01*
X144657423Y-178911185D01*
X144944158Y-179747651D01*
X145216280Y-180526130D01*
X145450153Y-181180100D01*
X145622143Y-181643038D01*
X145676740Y-181780160D01*
X145917202Y-182353956D01*
X147538803Y-182353956D01*
X149160405Y-182353956D01*
X149054578Y-181789846D01*
X148956860Y-181394589D01*
X148776292Y-180776093D01*
X148534216Y-179998861D01*
X148251976Y-179127393D01*
X147950915Y-178226191D01*
X147652377Y-177359757D01*
X147377705Y-176592592D01*
X147148243Y-175989198D01*
X147080055Y-175822690D01*
X146799575Y-175240495D01*
X146419036Y-174555469D01*
X146326293Y-174406349D01*
X154746848Y-174406349D01*
X154759039Y-174629740D01*
X154852780Y-175047820D01*
X154925667Y-175337747D01*
X155310482Y-176412820D01*
X155855242Y-177275916D01*
X156536916Y-177904629D01*
X157332474Y-178276553D01*
X158046898Y-178374195D01*
X158584793Y-178329279D01*
X159063654Y-178214727D01*
X159194488Y-178159179D01*
X159697254Y-177800278D01*
X160220612Y-177278115D01*
X160656520Y-176707104D01*
X160796211Y-176462992D01*
X161061518Y-175776600D01*
X161167895Y-175145957D01*
X161117121Y-174629881D01*
X160910976Y-174287189D01*
X160727546Y-174192734D01*
X160344328Y-174162751D01*
X160083916Y-174342434D01*
X159896177Y-174774308D01*
X159852659Y-174934834D01*
X159551604Y-175690523D01*
X159124097Y-176190493D01*
X158617081Y-176431183D01*
X158077498Y-176409036D01*
X157552289Y-176120493D01*
X157088398Y-175561996D01*
X156885333Y-175159791D01*
X156676918Y-174714253D01*
X156476363Y-174474748D01*
X156190441Y-174358465D01*
X155931146Y-174312189D01*
X155449027Y-174263139D01*
X155049449Y-174260887D01*
X154981456Y-174268789D01*
X154819792Y-174308936D01*
X154746848Y-174406349D01*
X146326293Y-174406349D01*
X146018812Y-173911956D01*
X146002822Y-173888065D01*
X145676689Y-173379745D01*
X145431205Y-172953757D01*
X145307977Y-172683759D01*
X145301047Y-172645736D01*
X145160484Y-172497812D01*
X144788566Y-172371404D01*
X144259946Y-172285023D01*
X143732673Y-172256844D01*
X143443971Y-172288209D01*
X143334170Y-172423814D01*
X137920845Y-172423814D01*
X137840922Y-172178654D01*
X135412249Y-172088803D01*
X134550256Y-172047619D01*
X133770024Y-171993122D01*
X133134802Y-171931025D01*
X132707839Y-171867041D01*
X132585483Y-171833446D01*
X132257048Y-171630457D01*
X131887599Y-171266843D01*
X131461428Y-170720048D01*
X130962826Y-169967513D01*
X130376085Y-168986680D01*
X129685498Y-167754992D01*
X129469585Y-167358775D01*
X128976481Y-166455597D01*
X128403427Y-165415984D01*
X127822037Y-164369356D01*
X127310599Y-163456968D01*
X126878235Y-162670571D01*
X126472241Y-161896175D01*
X126131638Y-161210669D01*
X125895449Y-160690942D01*
X125853283Y-160585445D01*
X125672842Y-160082822D01*
X125601459Y-159745103D01*
X125609957Y-159664853D01*
X126697782Y-159664853D01*
X126742525Y-159956673D01*
X126869018Y-160351436D01*
X127087892Y-160872939D01*
X127409779Y-161544978D01*
X127845309Y-162391352D01*
X128405114Y-163435855D01*
X129099824Y-164702287D01*
X129749994Y-165873485D01*
X130485325Y-167185282D01*
X131094600Y-168251421D01*
X131594289Y-169097056D01*
X132000858Y-169747338D01*
X132330778Y-170227421D01*
X132600516Y-170562455D01*
X132826541Y-170777594D01*
X133025321Y-170897990D01*
X133045093Y-170906084D01*
X133297199Y-170947863D01*
X133830493Y-170991721D01*
X134620153Y-171036813D01*
X135641356Y-171082293D01*
X136869280Y-171127315D01*
X138279102Y-171171033D01*
X139846000Y-171212602D01*
X141545152Y-171251176D01*
X143351735Y-171285909D01*
X144951386Y-171311753D01*
X145704933Y-171318240D01*
X146210058Y-171305691D01*
X146524175Y-171265816D01*
X146704698Y-171190327D01*
X146809041Y-171070932D01*
X146825783Y-171041123D01*
X146936587Y-170682164D01*
X146984147Y-170226768D01*
X146984179Y-170216006D01*
X146948566Y-169835834D01*
X146851322Y-169225861D01*
X146706842Y-168452713D01*
X146529520Y-167583019D01*
X146333751Y-166683407D01*
X146180366Y-166021045D01*
X148986611Y-166021045D01*
X149038877Y-166690999D01*
X149149480Y-167574860D01*
X149318367Y-168712199D01*
X149356317Y-168955599D01*
X149521753Y-169964814D01*
X149671282Y-170718723D01*
X149826883Y-171265689D01*
X150010541Y-171654076D01*
X150244236Y-171932246D01*
X150549950Y-172148562D01*
X150886181Y-172321503D01*
X151727934Y-172630777D01*
X152810406Y-172889853D01*
X154071559Y-173093152D01*
X155449358Y-173235093D01*
X156881766Y-173310094D01*
X158306747Y-173312574D01*
X159662264Y-173236953D01*
X160295491Y-173167993D01*
X161143079Y-173044706D01*
X161740852Y-172914556D01*
X162144411Y-172751352D01*
X162409352Y-172528905D01*
X162591276Y-172221026D01*
X162658105Y-172055097D01*
X162821240Y-171553870D01*
X163000412Y-170910639D01*
X163125795Y-170397937D01*
X163225798Y-169886148D01*
X163329367Y-169241832D01*
X163428526Y-168532224D01*
X163515299Y-167824560D01*
X163581713Y-167186073D01*
X163619791Y-166684000D01*
X163621560Y-166385574D01*
X163607729Y-166334935D01*
X163443563Y-166344428D01*
X163061038Y-166421651D01*
X162536198Y-166550807D01*
X162420522Y-166581566D01*
X160668039Y-166958577D01*
X158978299Y-167137348D01*
X157390356Y-167119625D01*
X155943264Y-166907152D01*
X154676076Y-166501674D01*
X154091436Y-166209502D01*
X153621305Y-165906370D01*
X153069618Y-165506464D01*
X152718191Y-165228875D01*
X152034677Y-164752795D01*
X151322793Y-164407395D01*
X150662443Y-164223668D01*
X150143110Y-164230133D01*
X149751590Y-164405592D01*
X149361961Y-164688816D01*
X149180357Y-164898882D01*
X149057299Y-165164559D01*
X148992734Y-165525423D01*
X148986611Y-166021045D01*
X146180366Y-166021045D01*
X146133927Y-165820505D01*
X145944445Y-165060941D01*
X145779697Y-164471343D01*
X145679532Y-164177033D01*
X145593586Y-163967340D01*
X145501665Y-163789585D01*
X145373749Y-163626898D01*
X145179819Y-163462406D01*
X144889854Y-163279239D01*
X144473834Y-163060524D01*
X143901741Y-162789392D01*
X143143554Y-162448971D01*
X142169253Y-162022388D01*
X140948819Y-161492774D01*
X140749787Y-161406489D01*
X139604977Y-160908412D01*
X138385721Y-160374937D01*
X137174335Y-159842287D01*
X136053139Y-159346687D01*
X135104449Y-158924361D01*
X134851643Y-158811011D01*
X132435373Y-157725117D01*
X130344893Y-158111215D01*
X129114716Y-158360732D01*
X128164608Y-158605719D01*
X127468898Y-158854773D01*
X127001912Y-159116493D01*
X126811021Y-159294854D01*
X126724158Y-159452179D01*
X126697782Y-159664853D01*
X125609957Y-159664853D01*
X125632288Y-159453963D01*
X125758482Y-159091082D01*
X125765738Y-159072584D01*
X125909581Y-158670338D01*
X125920306Y-158415026D01*
X125780820Y-158170404D01*
X125629379Y-157985704D01*
X125194416Y-157391170D01*
X124897750Y-156766620D01*
X124680343Y-155983156D01*
X124652973Y-155853955D01*
X124532643Y-155349697D01*
X124385306Y-155044266D01*
X124136895Y-154834101D01*
X123795667Y-154655296D01*
X123649891Y-154557406D01*
X135024748Y-154557406D01*
X135027570Y-154911692D01*
X135068203Y-155218963D01*
X135171810Y-155496181D01*
X135363554Y-155760305D01*
X135668599Y-156028295D01*
X136112107Y-156317113D01*
X136719242Y-156643718D01*
X137515165Y-157025071D01*
X138525040Y-157478132D01*
X139774031Y-158019862D01*
X140836991Y-158474973D01*
X142262331Y-159081994D01*
X143434048Y-159576559D01*
X144378773Y-159969123D01*
X145123139Y-160270144D01*
X145693779Y-160490077D01*
X146117323Y-160639379D01*
X146420405Y-160728508D01*
X146629656Y-160767918D01*
X146687267Y-160771953D01*
X146913700Y-160678401D01*
X147281810Y-160425711D01*
X147713526Y-160067728D01*
X147730493Y-160052450D01*
X148535089Y-159325642D01*
X148268621Y-156960649D01*
X148174938Y-155890751D01*
X151143980Y-155890751D01*
X151182199Y-156971676D01*
X151361232Y-157675416D01*
X151692926Y-158487119D01*
X152166899Y-159417472D01*
X152729121Y-160377359D01*
X153325567Y-161277663D01*
X153902208Y-162029266D01*
X154196599Y-162352256D01*
X154757562Y-162872871D01*
X155310113Y-163278385D01*
X155895376Y-163575768D01*
X156554477Y-163771989D01*
X157328540Y-163874018D01*
X158258688Y-163888825D01*
X159386047Y-163823380D01*
X160751740Y-163684652D01*
X161515459Y-163592651D01*
X162526481Y-163448209D01*
X163276423Y-163289216D01*
X163810151Y-163094379D01*
X164172535Y-162842408D01*
X164408442Y-162512011D01*
X164542244Y-162156365D01*
X164797262Y-160851429D01*
X164825377Y-159462111D01*
X164627149Y-157930956D01*
X164585426Y-157721601D01*
X164443803Y-157059368D01*
X164318481Y-156516365D01*
X164225050Y-156157669D01*
X164184342Y-156047693D01*
X164048633Y-156109552D01*
X163760761Y-156339109D01*
X163391195Y-156678954D01*
X162934815Y-157088005D01*
X162487579Y-157435020D01*
X162206923Y-157611213D01*
X161470311Y-157876788D01*
X160518706Y-158062349D01*
X159435553Y-158155596D01*
X158518344Y-158154979D01*
X157580204Y-158073695D01*
X156787373Y-157891533D01*
X156094297Y-157576411D01*
X155455419Y-157096249D01*
X154825184Y-156418966D01*
X154158038Y-155512480D01*
X153642937Y-154721619D01*
X153257062Y-154124701D01*
X152918828Y-153631128D01*
X152666547Y-153294926D01*
X152543249Y-153171035D01*
X152376319Y-153257058D01*
X152123789Y-153534320D01*
X151968583Y-153750751D01*
X151405153Y-154823274D01*
X151143980Y-155890751D01*
X148174938Y-155890751D01*
X148133739Y-155420238D01*
X148110968Y-154131550D01*
X148198185Y-153146912D01*
X153869721Y-153146912D01*
X153959372Y-153397656D01*
X154198258Y-153820483D01*
X154541277Y-154351075D01*
X154943330Y-154925116D01*
X155359316Y-155478288D01*
X155744134Y-155946275D01*
X156052684Y-156264759D01*
X156061170Y-156272085D01*
X156749259Y-156758183D01*
X157494454Y-157058070D01*
X158372696Y-157192754D01*
X159373111Y-157188291D01*
X160124368Y-157125376D01*
X160707157Y-157010537D01*
X161258523Y-156809531D01*
X161668292Y-156614783D01*
X162430293Y-156155372D01*
X162984209Y-155622595D01*
X163356036Y-154965793D01*
X163571775Y-154134307D01*
X163657425Y-153077477D01*
X163661639Y-152730704D01*
X163635892Y-152035995D01*
X163565846Y-151403556D01*
X163463751Y-150899919D01*
X163341855Y-150591614D01*
X163256021Y-150527450D01*
X163105002Y-150613974D01*
X162802049Y-150833486D01*
X162620689Y-150974036D01*
X162131437Y-151281707D01*
X161525381Y-151559714D01*
X161224781Y-151662590D01*
X160489675Y-151805455D01*
X159562355Y-151882397D01*
X158549541Y-151892997D01*
X157557950Y-151836835D01*
X156694300Y-151713492D01*
X156547432Y-151680991D01*
X156038476Y-151566724D01*
X155736518Y-151536026D01*
X155551782Y-151597792D01*
X155394494Y-151760915D01*
X155364991Y-151798140D01*
X155170286Y-152071946D01*
X155097220Y-152220659D01*
X154974094Y-152340270D01*
X154666348Y-152543543D01*
X154481769Y-152651233D01*
X154116048Y-152887040D01*
X153897263Y-153086528D01*
X153869721Y-153146912D01*
X148198185Y-153146912D01*
X148205936Y-153059409D01*
X148424267Y-152168638D01*
X148771590Y-151424061D01*
X149253529Y-150790501D01*
X149255887Y-150787979D01*
X149312439Y-150720275D01*
X152537473Y-150720275D01*
X152693377Y-151264687D01*
X153025378Y-151639522D01*
X153073081Y-151667523D01*
X153563631Y-151867636D01*
X153939404Y-151834308D01*
X154291893Y-151560281D01*
X154724353Y-150926255D01*
X154926838Y-150236882D01*
X154894066Y-149563638D01*
X154620752Y-148977999D01*
X154493540Y-148832547D01*
X154026502Y-148478396D01*
X153613811Y-148419476D01*
X153232048Y-148655039D01*
X153115702Y-148788529D01*
X152749699Y-149410300D01*
X152556602Y-150078180D01*
X152537473Y-150720275D01*
X149312439Y-150720275D01*
X149501118Y-150494388D01*
X149539766Y-150322472D01*
X149429684Y-150213635D01*
X149090031Y-150056595D01*
X148457546Y-149833495D01*
X147537826Y-149546022D01*
X146336471Y-149195867D01*
X144859078Y-148784718D01*
X143314149Y-148368220D01*
X142322832Y-148103989D01*
X141422075Y-147863420D01*
X140656835Y-147658559D01*
X140072070Y-147501451D01*
X139712737Y-147404140D01*
X139626442Y-147380170D01*
X139465676Y-147420639D01*
X139286203Y-147661398D01*
X139062488Y-148141770D01*
X138950460Y-148421187D01*
X138601343Y-149254274D01*
X138243121Y-149945148D01*
X137818778Y-150579544D01*
X137271299Y-151243199D01*
X136583084Y-151981064D01*
X135968726Y-152629716D01*
X135541404Y-153122832D01*
X135267157Y-153516559D01*
X135112023Y-153867044D01*
X135042039Y-154230437D01*
X135024748Y-154557406D01*
X123649891Y-154557406D01*
X123044206Y-154150684D01*
X122353016Y-153427353D01*
X121797056Y-152572256D01*
X121578271Y-152083161D01*
X121404194Y-151526852D01*
X121310689Y-150953258D01*
X121282722Y-150246402D01*
X121282739Y-150245064D01*
X122209521Y-150245064D01*
X122305944Y-151162311D01*
X122605155Y-152058427D01*
X123081071Y-152838221D01*
X123368057Y-153146427D01*
X123993737Y-153632236D01*
X124533234Y-153868770D01*
X124964014Y-153851092D01*
X125263545Y-153574264D01*
X125269629Y-153563100D01*
X125363248Y-153192194D01*
X125392298Y-152589269D01*
X125374610Y-152111216D01*
X125300561Y-151403435D01*
X125161048Y-150867719D01*
X124918675Y-150371399D01*
X124854015Y-150264295D01*
X124346031Y-149605112D01*
X123770681Y-149125413D01*
X123190752Y-148872036D01*
X122950526Y-148844317D01*
X122646311Y-148897019D01*
X122456223Y-149110822D01*
X122341972Y-149401880D01*
X122209521Y-150245064D01*
X121282739Y-150245064D01*
X121287786Y-149841980D01*
X121288125Y-149077903D01*
X121234613Y-148483769D01*
X121106949Y-147925343D01*
X120908273Y-147332443D01*
X120697913Y-146713692D01*
X120599501Y-146287860D01*
X120599491Y-146069764D01*
X121674932Y-146069764D01*
X121693464Y-146427642D01*
X121846093Y-146951527D01*
X121888352Y-147079117D01*
X122221060Y-148078902D01*
X122800109Y-147986309D01*
X123552427Y-148012475D01*
X124274804Y-148310864D01*
X124939376Y-148847680D01*
X125518281Y-149589128D01*
X125983655Y-150501414D01*
X126307637Y-151550742D01*
X126440560Y-152401847D01*
X126523835Y-152971665D01*
X126638184Y-153237350D01*
X126783476Y-153198784D01*
X126957630Y-152860883D01*
X127035365Y-152288559D01*
X126900824Y-151512631D01*
X126552762Y-150527929D01*
X126220504Y-149792256D01*
X125944742Y-149195248D01*
X125775695Y-148727096D01*
X125686975Y-148269144D01*
X125652192Y-147702734D01*
X125652140Y-147698610D01*
X126381704Y-147698610D01*
X126561811Y-148536163D01*
X126620109Y-148700719D01*
X127004532Y-149470638D01*
X127497037Y-150085609D01*
X128054041Y-150524108D01*
X128631957Y-150764611D01*
X129187202Y-150785596D01*
X129676191Y-150565538D01*
X129908203Y-150324483D01*
X130119337Y-149929103D01*
X130210766Y-149420590D01*
X130219817Y-149023881D01*
X130083123Y-148056927D01*
X129682504Y-147196576D01*
X129288326Y-146738622D01*
X132845774Y-146738622D01*
X133022850Y-147357749D01*
X133332915Y-147879551D01*
X133652425Y-148154468D01*
X134263563Y-148359200D01*
X134870833Y-148347834D01*
X135374657Y-148127282D01*
X135485257Y-148027252D01*
X135878423Y-147424080D01*
X136037784Y-146756297D01*
X135985219Y-146084389D01*
X135742605Y-145468841D01*
X135331822Y-144970138D01*
X134774746Y-144648767D01*
X134231122Y-144559980D01*
X133849514Y-144692278D01*
X133447929Y-145034596D01*
X133098336Y-145505070D01*
X132872707Y-146021835D01*
X132846626Y-146134807D01*
X132845774Y-146738622D01*
X129288326Y-146738622D01*
X128998049Y-146401380D01*
X128930181Y-146339108D01*
X128518658Y-145999828D01*
X128189120Y-145838883D01*
X127820429Y-145805714D01*
X127672048Y-145814003D01*
X127075725Y-145988808D01*
X126652601Y-146386680D01*
X126416614Y-146969364D01*
X126381704Y-147698610D01*
X125652140Y-147698610D01*
X125645950Y-147208810D01*
X125638998Y-145802821D01*
X125026950Y-145404978D01*
X124444631Y-145065919D01*
X123974692Y-144923557D01*
X123502493Y-144970466D01*
X122913392Y-145199222D01*
X122784788Y-145259760D01*
X122184506Y-145559064D01*
X121826583Y-145804652D01*
X121674932Y-146069764D01*
X120599491Y-146069764D01*
X120599487Y-145968759D01*
X120658113Y-145741236D01*
X120806291Y-145069021D01*
X120717967Y-144480169D01*
X120521565Y-144071437D01*
X120406220Y-143819876D01*
X120202448Y-143316250D01*
X119923675Y-142597073D01*
X119583326Y-141698857D01*
X119194829Y-140658114D01*
X118771609Y-139511357D01*
X118327092Y-138295099D01*
X117874705Y-137045852D01*
X117427874Y-135800129D01*
X117000025Y-134594443D01*
X116604583Y-133465305D01*
X116346054Y-132716087D01*
X116130238Y-132071869D01*
X116006744Y-131631158D01*
X115966070Y-131308876D01*
X115972361Y-131253186D01*
X116993818Y-131253186D01*
X117044640Y-131484320D01*
X117188797Y-131966867D01*
X117413825Y-132665085D01*
X117707258Y-133543234D01*
X118056632Y-134565572D01*
X118449483Y-135696360D01*
X118873345Y-136899855D01*
X119315754Y-138140317D01*
X119764246Y-139382005D01*
X120206355Y-140589177D01*
X120629617Y-141726093D01*
X120843846Y-142292694D01*
X121120499Y-143018168D01*
X121329067Y-143492451D01*
X121520569Y-143746248D01*
X121746024Y-143810262D01*
X122056449Y-143715199D01*
X122502864Y-143491762D01*
X122681658Y-143398740D01*
X123241755Y-143240950D01*
X123924848Y-143233413D01*
X124587729Y-143375428D01*
X124673933Y-143408502D01*
X124831678Y-143444555D01*
X124864543Y-143324859D01*
X124786520Y-142984778D01*
X124774857Y-142942310D01*
X124687792Y-142425639D01*
X124687728Y-142242950D01*
X125623999Y-142242950D01*
X125899122Y-143192667D01*
X126109217Y-143880106D01*
X126266168Y-144339188D01*
X126381860Y-144603836D01*
X126468178Y-144707972D01*
X126489354Y-144712992D01*
X126707789Y-144674473D01*
X127120676Y-144574700D01*
X127518898Y-144468135D01*
X128124036Y-144329635D01*
X128592033Y-144310177D01*
X129023598Y-144391304D01*
X129989422Y-144806733D01*
X130814820Y-145490661D01*
X131143538Y-145892956D01*
X131423391Y-146256645D01*
X131634516Y-146491879D01*
X131701671Y-146539787D01*
X131783581Y-146411560D01*
X131869763Y-146080928D01*
X131890563Y-145963238D01*
X132143064Y-145212424D01*
X132616569Y-144502270D01*
X133110100Y-144038507D01*
X133437936Y-143852829D01*
X133849697Y-143753737D01*
X134444736Y-143719965D01*
X134601967Y-143719182D01*
X135126709Y-143713400D01*
X135505599Y-143697471D01*
X135660789Y-143674765D01*
X135661287Y-143673330D01*
X135566650Y-143419544D01*
X135325927Y-143037255D01*
X135003903Y-142619736D01*
X134707033Y-142299466D01*
X134380187Y-142001479D01*
X134150558Y-141886879D01*
X133896246Y-141925423D01*
X133627808Y-142031695D01*
X132984880Y-142224718D01*
X132326224Y-142248782D01*
X131584259Y-142095655D01*
X130691404Y-141757106D01*
X130438162Y-141643208D01*
X129699616Y-141332991D01*
X129047473Y-141115103D01*
X128564559Y-141016519D01*
X128504863Y-141013559D01*
X128055683Y-141064719D01*
X127504054Y-141208722D01*
X126919644Y-141415840D01*
X126372115Y-141656344D01*
X125931133Y-141900504D01*
X125666364Y-142118591D01*
X125623999Y-142242950D01*
X124687728Y-142242950D01*
X124687619Y-141934492D01*
X124693011Y-141896462D01*
X124682469Y-141652112D01*
X124595592Y-141225526D01*
X124426697Y-140597396D01*
X124170099Y-139748411D01*
X123820115Y-138659263D01*
X123371062Y-137310641D01*
X123157551Y-136679859D01*
X122638134Y-135154848D01*
X122204784Y-133894933D01*
X121846665Y-132874933D01*
X121552939Y-132069670D01*
X121312768Y-131453962D01*
X121115316Y-131002630D01*
X120949744Y-130690494D01*
X120805214Y-130492373D01*
X120670891Y-130383088D01*
X120535935Y-130337459D01*
X120424508Y-130329859D01*
X119997242Y-130284766D01*
X119496518Y-130174502D01*
X119437830Y-130157517D01*
X119107666Y-130078576D01*
X118823335Y-130088011D01*
X118485866Y-130208203D01*
X117996283Y-130461530D01*
X117928211Y-130498860D01*
X117444759Y-130797537D01*
X117111865Y-131068164D01*
X116993818Y-131253186D01*
X115972361Y-131253186D01*
X115998711Y-131019944D01*
X116095165Y-130679283D01*
X116112472Y-130624957D01*
X116345457Y-129896394D01*
X115820167Y-128948640D01*
X115562969Y-128447536D01*
X115389912Y-127988615D01*
X115273714Y-127469387D01*
X115187092Y-126787359D01*
X115154922Y-126449409D01*
X115080955Y-125414648D01*
X115036718Y-124327000D01*
X115021967Y-123254442D01*
X115036456Y-122264951D01*
X115079941Y-121426501D01*
X115152177Y-120807071D01*
X115175679Y-120690100D01*
X115188742Y-120593356D01*
X116075745Y-120593356D01*
X116077835Y-123816728D01*
X116082465Y-125037816D01*
X116096428Y-125984892D01*
X116122495Y-126689900D01*
X116163436Y-127184780D01*
X116222023Y-127501475D01*
X116301025Y-127671928D01*
X116403214Y-127728080D01*
X116417162Y-127728654D01*
X116627505Y-127660165D01*
X117006864Y-127483876D01*
X117318050Y-127321446D01*
X117836704Y-126977049D01*
X118307411Y-126563113D01*
X118341137Y-126524450D01*
X121360271Y-126524450D01*
X121388170Y-126682623D01*
X121502729Y-127093987D01*
X121692024Y-127722021D01*
X121944133Y-128530203D01*
X122247134Y-129482014D01*
X122589103Y-130540933D01*
X122958118Y-131670440D01*
X123342256Y-132834013D01*
X123729594Y-133995133D01*
X124108210Y-135117278D01*
X124466180Y-136163929D01*
X124791583Y-137098565D01*
X125037840Y-137789197D01*
X125374998Y-138685193D01*
X125640173Y-139307106D01*
X125843348Y-139675695D01*
X125994509Y-139811717D01*
X126011417Y-139813396D01*
X126261382Y-139770583D01*
X126720104Y-139659236D01*
X127303680Y-139500268D01*
X127529198Y-139435108D01*
X128074507Y-139276587D01*
X128486002Y-139184169D01*
X128830435Y-139174015D01*
X129174557Y-139262287D01*
X129585122Y-139465143D01*
X130128880Y-139798746D01*
X130786734Y-140223759D01*
X131572696Y-140708011D01*
X132171078Y-141010069D01*
X132630312Y-141142544D01*
X132998832Y-141118046D01*
X133325068Y-140949185D01*
X133387408Y-140900899D01*
X133748637Y-140608084D01*
X133491790Y-139638550D01*
X133375997Y-139297896D01*
X133147708Y-138712076D01*
X132821094Y-137914507D01*
X132410324Y-136938600D01*
X131929571Y-135817771D01*
X131393005Y-134585433D01*
X130814798Y-133275001D01*
X130587623Y-132765831D01*
X135109651Y-132765831D01*
X135169404Y-133109506D01*
X135298138Y-133627490D01*
X135498169Y-134352198D01*
X135771811Y-135316045D01*
X136028281Y-136220823D01*
X136318557Y-137268722D01*
X136604647Y-138335870D01*
X136866179Y-139343777D01*
X137082784Y-140213950D01*
X137232851Y-140862156D01*
X137573938Y-142443247D01*
X138817980Y-143430862D01*
X140041247Y-144553000D01*
X141009204Y-145697436D01*
X141438396Y-146270341D01*
X141753464Y-146650018D01*
X142022266Y-146889274D01*
X142312661Y-147040917D01*
X142692509Y-147157752D01*
X142978415Y-147229847D01*
X143890156Y-147464743D01*
X144896448Y-147738750D01*
X145939835Y-148034727D01*
X146962863Y-148335537D01*
X147908076Y-148624041D01*
X148718020Y-148883101D01*
X149335240Y-149095577D01*
X149651287Y-149220340D01*
X150169272Y-149496570D01*
X150624992Y-149813058D01*
X150797899Y-149971243D01*
X151068269Y-150238374D01*
X151250906Y-150371183D01*
X151266262Y-150374438D01*
X151355431Y-150239866D01*
X151479275Y-149894553D01*
X151562379Y-149599133D01*
X151785402Y-148995460D01*
X152115313Y-148380143D01*
X152262635Y-148166762D01*
X152764186Y-147509694D01*
X152781306Y-147121565D01*
X153691260Y-147121565D01*
X154377021Y-147453537D01*
X154874475Y-147769495D01*
X155308072Y-148168106D01*
X155422577Y-148313867D01*
X155660817Y-148641196D01*
X155825934Y-148827223D01*
X155854066Y-148843272D01*
X155989780Y-148744206D01*
X156281207Y-148481959D01*
X156668546Y-148110618D01*
X156718326Y-148061597D01*
X157510892Y-147278877D01*
X159179959Y-147199766D01*
X159911265Y-147168189D01*
X160443519Y-147168479D01*
X160871118Y-147220553D01*
X161288461Y-147344330D01*
X161789944Y-147559725D01*
X162469965Y-147886658D01*
X162496439Y-147899529D01*
X162544392Y-147791837D01*
X162548838Y-147432493D01*
X162516027Y-146871797D01*
X162452207Y-146160050D01*
X162363629Y-145347551D01*
X162256542Y-144484601D01*
X162137195Y-143621501D01*
X162011837Y-142808550D01*
X161886718Y-142096049D01*
X161768088Y-141534297D01*
X161662196Y-141173596D01*
X161660173Y-141168588D01*
X161470731Y-140845603D01*
X161181659Y-140630218D01*
X160747226Y-140512515D01*
X160121700Y-140482579D01*
X159259351Y-140530492D01*
X158878038Y-140565288D01*
X158163126Y-140633195D01*
X157547767Y-140688126D01*
X157103525Y-140723914D01*
X156912534Y-140734679D01*
X156719718Y-140883273D01*
X156538152Y-141311430D01*
X156488030Y-141490696D01*
X156184607Y-142259727D01*
X155720816Y-142777733D01*
X155072711Y-143067624D01*
X154783546Y-143121371D01*
X154050199Y-143218653D01*
X153955541Y-144310100D01*
X153892214Y-145022164D01*
X153824030Y-145761288D01*
X153776072Y-146261556D01*
X153691260Y-147121565D01*
X152781306Y-147121565D01*
X152875832Y-144978622D01*
X152914375Y-143653451D01*
X152908699Y-142481454D01*
X152859654Y-141523538D01*
X152822606Y-141170331D01*
X152763951Y-140703381D01*
X153717281Y-140703381D01*
X153808001Y-141271940D01*
X154044900Y-141713911D01*
X154373465Y-141996733D01*
X154739183Y-142087845D01*
X155087540Y-141954684D01*
X155319406Y-141660349D01*
X155477748Y-141175343D01*
X155540112Y-140598255D01*
X155504189Y-140053449D01*
X155367671Y-139665289D01*
X155356722Y-139650335D01*
X155100930Y-139411912D01*
X154755986Y-139184824D01*
X154461182Y-139057456D01*
X154413074Y-139051546D01*
X154230465Y-139186147D01*
X154030784Y-139526968D01*
X153853827Y-139979533D01*
X153739388Y-140449367D01*
X153717281Y-140703381D01*
X152763951Y-140703381D01*
X152730694Y-140438625D01*
X152641648Y-139696907D01*
X152573239Y-139093564D01*
X152567651Y-139041213D01*
X152477569Y-138189314D01*
X145574653Y-134801989D01*
X138671737Y-131414664D01*
X138122838Y-131842969D01*
X137326139Y-132333478D01*
X136516363Y-132546863D01*
X135764641Y-132527504D01*
X135514190Y-132485883D01*
X135321151Y-132456489D01*
X135187839Y-132471738D01*
X135116568Y-132564047D01*
X135109651Y-132765831D01*
X130587623Y-132765831D01*
X130374168Y-132287412D01*
X129422163Y-130163750D01*
X139211082Y-130163750D01*
X139242150Y-130266977D01*
X139327134Y-130382404D01*
X139489068Y-130522907D01*
X139750985Y-130701362D01*
X140135919Y-130930644D01*
X140666906Y-131223632D01*
X141366979Y-131593199D01*
X142259173Y-132052223D01*
X143366521Y-132613579D01*
X144712058Y-133290144D01*
X145598626Y-133734377D01*
X146890399Y-134380070D01*
X148098097Y-134981704D01*
X149194269Y-135525749D01*
X150151466Y-135998679D01*
X150942239Y-136386965D01*
X151539139Y-136677078D01*
X151914717Y-136855491D01*
X152040800Y-136909377D01*
X152094650Y-136767802D01*
X152130564Y-136545116D01*
X153259341Y-136545116D01*
X153385982Y-137597932D01*
X153496655Y-138209980D01*
X154181345Y-138162828D01*
X154697978Y-138167308D01*
X155149201Y-138236161D01*
X155247698Y-138267888D01*
X155618272Y-138399708D01*
X155805765Y-138389796D01*
X155906443Y-138221381D01*
X155930477Y-138148935D01*
X156260693Y-137603340D01*
X156851514Y-137194892D01*
X157683931Y-136936374D01*
X157752055Y-136923997D01*
X158607254Y-136796557D01*
X159236467Y-136763356D01*
X159706788Y-136830574D01*
X160085313Y-137004396D01*
X160290950Y-137157935D01*
X160598516Y-137395111D01*
X160792699Y-137504380D01*
X160817866Y-137502212D01*
X160802189Y-137331509D01*
X160706930Y-136920764D01*
X160547466Y-136320852D01*
X160339173Y-135582649D01*
X160097430Y-134757031D01*
X159837614Y-133894874D01*
X159575103Y-133047054D01*
X159325273Y-132264445D01*
X159103503Y-131597924D01*
X158925169Y-131098367D01*
X158805650Y-130816649D01*
X158788731Y-130788895D01*
X158272416Y-130309210D01*
X157566822Y-129989245D01*
X156765176Y-129871082D01*
X156755246Y-129871061D01*
X156339014Y-129895638D01*
X156005449Y-130002352D01*
X155650412Y-130240188D01*
X155265216Y-130571905D01*
X154510975Y-131443768D01*
X153919034Y-132530235D01*
X153503626Y-133778092D01*
X153278984Y-135134124D01*
X153259341Y-136545116D01*
X152130564Y-136545116D01*
X152155924Y-136387874D01*
X152215045Y-135836794D01*
X152242537Y-135494016D01*
X152411650Y-134031204D01*
X152707137Y-132787395D01*
X153153176Y-131693140D01*
X153773943Y-130678986D01*
X154042633Y-130322926D01*
X154715967Y-129618426D01*
X155439900Y-129182599D01*
X156288337Y-128978986D01*
X156819923Y-128952751D01*
X157545385Y-128998218D01*
X158160198Y-129163491D01*
X158623910Y-129373534D01*
X159065257Y-129614381D01*
X159357271Y-129848193D01*
X159575815Y-130164401D01*
X159796750Y-130652433D01*
X159876707Y-130850394D01*
X160172435Y-131644696D01*
X160498198Y-132610374D01*
X160834744Y-133680657D01*
X161162821Y-134788775D01*
X161463178Y-135867959D01*
X161716563Y-136851437D01*
X161903723Y-137672439D01*
X161998685Y-138209980D01*
X162127797Y-138969837D01*
X162319427Y-139844849D01*
X162535040Y-140661314D01*
X162563763Y-140757184D01*
X162967355Y-142080292D01*
X164806791Y-143007039D01*
X165491641Y-143348548D01*
X166078267Y-143634426D01*
X166512822Y-143838923D01*
X166741462Y-143936294D01*
X166759662Y-143940858D01*
X166933731Y-143858726D01*
X167266090Y-143639042D01*
X167574696Y-143412389D01*
X167654110Y-143357596D01*
X171466107Y-143357596D01*
X171532120Y-143768383D01*
X171713759Y-143944849D01*
X171748382Y-143947932D01*
X171899317Y-143879476D01*
X172284285Y-143686626D01*
X172866850Y-143388160D01*
X173610578Y-143002854D01*
X174479032Y-142549486D01*
X175367071Y-142083030D01*
X178907501Y-140218128D01*
X179328228Y-137530921D01*
X179495168Y-136447605D01*
X179672334Y-135269086D01*
X179842666Y-134110670D01*
X179899363Y-133714583D01*
X181105866Y-133714583D01*
X181122163Y-134177565D01*
X181206313Y-134438848D01*
X181411201Y-134602389D01*
X181603155Y-134692100D01*
X182062787Y-134823984D01*
X182640631Y-134903950D01*
X182877085Y-134914232D01*
X183412509Y-134883444D01*
X183763020Y-134757177D01*
X183976230Y-134575944D01*
X184276351Y-134166699D01*
X184461938Y-133800922D01*
X184564503Y-133326970D01*
X184614132Y-132657420D01*
X184611228Y-131898011D01*
X184556191Y-131154487D01*
X184449535Y-130533031D01*
X184296376Y-130069526D01*
X184068790Y-129786377D01*
X183665025Y-129559136D01*
X183646222Y-129550562D01*
X183199980Y-129373829D01*
X182832148Y-129271790D01*
X182745362Y-129262135D01*
X182298806Y-129387200D01*
X181872811Y-129712943D01*
X181586310Y-130146053D01*
X181468887Y-130569222D01*
X181350038Y-131203915D01*
X181242442Y-131955956D01*
X181158779Y-132731171D01*
X181111727Y-133435383D01*
X181105866Y-133714583D01*
X179899363Y-133714583D01*
X179989101Y-133087667D01*
X180042219Y-132705395D01*
X180167657Y-131863332D01*
X180303760Y-131069532D01*
X180435659Y-130403789D01*
X180548486Y-129945896D01*
X180567663Y-129885667D01*
X180704358Y-129476170D01*
X180787796Y-129210182D01*
X180799842Y-129161154D01*
X180669719Y-129087682D01*
X180358193Y-128984266D01*
X179983530Y-128883012D01*
X179663993Y-128816025D01*
X179519117Y-128813476D01*
X179431981Y-128958279D01*
X179214867Y-129333583D01*
X178888321Y-129903445D01*
X178472891Y-130631921D01*
X177989122Y-131483068D01*
X177515261Y-132319016D01*
X176849610Y-133494005D01*
X176086795Y-134839328D01*
X175281066Y-136259382D01*
X174486675Y-137658561D01*
X173757874Y-138941262D01*
X173516083Y-139366532D01*
X172964929Y-140349631D01*
X172471591Y-141256486D01*
X172055562Y-142049141D01*
X171736337Y-142689643D01*
X171533410Y-143140039D01*
X171466107Y-143357596D01*
X167654110Y-143357596D01*
X168000412Y-143118660D01*
X168395890Y-142944658D01*
X168859577Y-142866521D01*
X169489918Y-142860388D01*
X169802672Y-142872382D01*
X170357911Y-142897569D01*
X172468044Y-139176666D01*
X173668671Y-137060126D01*
X174722915Y-135202914D01*
X175634852Y-133597875D01*
X176408560Y-132237855D01*
X177048117Y-131115702D01*
X177557601Y-130224262D01*
X177941089Y-129556380D01*
X178202660Y-129104904D01*
X178346391Y-128862680D01*
X178357410Y-128844951D01*
X178484722Y-128562722D01*
X178477595Y-128415644D01*
X178308701Y-128337402D01*
X177900204Y-128179665D01*
X177302403Y-127960950D01*
X176755900Y-127767228D01*
X180187794Y-127767228D01*
X180327048Y-127911910D01*
X180690107Y-128049696D01*
X181194916Y-128163676D01*
X181759420Y-128236937D01*
X182301563Y-128252566D01*
X182482240Y-128240130D01*
X183289179Y-128197328D01*
X183946415Y-128281634D01*
X184557532Y-128524792D01*
X185226114Y-128958547D01*
X185496041Y-129163743D01*
X186076457Y-129609308D01*
X186540492Y-129935603D01*
X186972635Y-130187178D01*
X187457375Y-130408580D01*
X188079198Y-130644360D01*
X188749745Y-130879364D01*
X189486424Y-131131663D01*
X189977345Y-131291047D01*
X190264914Y-131367622D01*
X190391534Y-131371492D01*
X190399611Y-131312765D01*
X190374634Y-131266603D01*
X190235310Y-131167787D01*
X189870965Y-130933344D01*
X189318521Y-130585873D01*
X188614904Y-130147973D01*
X187797037Y-129642242D01*
X186901843Y-129091280D01*
X185966247Y-128517685D01*
X185027173Y-127944056D01*
X184121544Y-127392991D01*
X183286285Y-126887090D01*
X182558319Y-126448952D01*
X181974569Y-126101174D01*
X181571961Y-125866356D01*
X181392343Y-125769107D01*
X181282210Y-125871286D01*
X181074282Y-126165159D01*
X180815534Y-126572803D01*
X180552939Y-127016297D01*
X180333473Y-127417718D01*
X180204110Y-127699144D01*
X180187794Y-127767228D01*
X176755900Y-127767228D01*
X176565599Y-127699771D01*
X175997801Y-127502877D01*
X173609994Y-126682098D01*
X169477810Y-128694058D01*
X168227789Y-129307267D01*
X167234321Y-129805683D01*
X166475498Y-130201436D01*
X165929411Y-130506657D01*
X165574151Y-130733475D01*
X165387808Y-130894021D01*
X165345625Y-130981889D01*
X165214027Y-131595016D01*
X164866429Y-132167741D01*
X164373626Y-132624956D01*
X163806412Y-132891550D01*
X163509480Y-132929920D01*
X162883595Y-132789978D01*
X162348837Y-132417493D01*
X161957534Y-131883477D01*
X161762014Y-131258941D01*
X161811385Y-130625487D01*
X161920454Y-130233746D01*
X161977111Y-129976163D01*
X161979360Y-129949913D01*
X161877520Y-129799409D01*
X161603550Y-129487900D01*
X161204773Y-129067667D01*
X160922008Y-128781822D01*
X160427313Y-128296522D01*
X160076618Y-127989144D01*
X159799650Y-127819122D01*
X159526135Y-127745890D01*
X159185798Y-127728880D01*
X159097603Y-127728654D01*
X158521730Y-127681537D01*
X158097420Y-127510140D01*
X157876475Y-127346575D01*
X157464364Y-126880798D01*
X160366748Y-126880798D01*
X160385931Y-127079547D01*
X160511140Y-127320586D01*
X160773709Y-127659057D01*
X161204970Y-128150102D01*
X161364172Y-128326823D01*
X161853166Y-128862804D01*
X162190594Y-129204909D01*
X162428128Y-129388054D01*
X162617439Y-129447152D01*
X162810199Y-129417120D01*
X162922820Y-129380008D01*
X163438250Y-129314475D01*
X164015668Y-129402925D01*
X164518240Y-129614005D01*
X164734161Y-129795021D01*
X164986347Y-129988652D01*
X165119195Y-130023835D01*
X165303978Y-129958535D01*
X165724356Y-129774562D01*
X166342057Y-129489807D01*
X167118813Y-129122158D01*
X168016353Y-128689506D01*
X168933108Y-128240942D01*
X169891519Y-127762574D01*
X170745494Y-127324421D01*
X171460625Y-126945116D01*
X172002506Y-126643292D01*
X172336730Y-126437582D01*
X172429780Y-126347314D01*
X172257999Y-126270937D01*
X171834545Y-126110999D01*
X171641776Y-126041417D01*
X174985384Y-126041417D01*
X175121044Y-126124764D01*
X175484778Y-126274848D01*
X176011713Y-126469893D01*
X176636978Y-126688125D01*
X177295702Y-126907769D01*
X177923014Y-127107050D01*
X178454041Y-127264192D01*
X178823913Y-127357422D01*
X178952346Y-127372976D01*
X179123749Y-127233816D01*
X179383026Y-126888754D01*
X179680837Y-126405427D01*
X179753286Y-126275040D01*
X180026837Y-125760165D01*
X180232167Y-125350647D01*
X180333526Y-125118487D01*
X180338433Y-125096523D01*
X180218044Y-125102268D01*
X179903469Y-125226943D01*
X179558857Y-125394780D01*
X178776908Y-125800469D01*
X177941506Y-125363081D01*
X177428346Y-125094407D01*
X181723999Y-125094407D01*
X181851079Y-125196539D01*
X182205526Y-125433488D01*
X182751729Y-125783569D01*
X183454076Y-126225095D01*
X184276956Y-126736381D01*
X185184759Y-127295738D01*
X186141873Y-127881482D01*
X187112688Y-128471925D01*
X188061592Y-129045382D01*
X188952974Y-129580166D01*
X189751224Y-130054590D01*
X190420731Y-130446968D01*
X190925883Y-130735614D01*
X191231070Y-130898841D01*
X191302469Y-130927505D01*
X191540422Y-130847716D01*
X191794770Y-130674136D01*
X191878416Y-130596947D01*
X191932019Y-130505925D01*
X191944703Y-130371791D01*
X191905595Y-130165266D01*
X191803818Y-129857071D01*
X191628498Y-129417924D01*
X191368761Y-128818548D01*
X191013730Y-128029663D01*
X190552532Y-127021988D01*
X189974292Y-125766245D01*
X189961965Y-125739498D01*
X189425881Y-124575817D01*
X188910568Y-123456347D01*
X188435302Y-122423029D01*
X188019361Y-121517808D01*
X187682021Y-120782627D01*
X187442560Y-120259429D01*
X187357099Y-120071797D01*
X186903025Y-119070965D01*
X185983079Y-119082975D01*
X185063132Y-119094985D01*
X184592420Y-119851252D01*
X184333451Y-120282969D01*
X183996099Y-120867878D01*
X183607685Y-121556044D01*
X183195527Y-122297532D01*
X182786943Y-123042405D01*
X182409252Y-123740729D01*
X182089773Y-124342566D01*
X181855825Y-124797983D01*
X181734726Y-125057042D01*
X181723999Y-125094407D01*
X177428346Y-125094407D01*
X177106105Y-124925692D01*
X176045745Y-125438662D01*
X175543077Y-125692637D01*
X175169269Y-125902081D01*
X174991515Y-126028798D01*
X174985384Y-126041417D01*
X171641776Y-126041417D01*
X171197904Y-125881197D01*
X170386563Y-125595225D01*
X169439008Y-125266780D01*
X168393724Y-124909556D01*
X168302772Y-124878701D01*
X164297872Y-123520823D01*
X163809314Y-123807793D01*
X163345665Y-123999237D01*
X162807602Y-124029092D01*
X162598735Y-124009249D01*
X162164309Y-123978690D01*
X161837970Y-124039552D01*
X161497113Y-124232571D01*
X161159749Y-124487340D01*
X160758632Y-124819901D01*
X160553003Y-125068177D01*
X160489712Y-125326294D01*
X160509791Y-125638412D01*
X160513861Y-126157048D01*
X160433973Y-126633280D01*
X160422258Y-126669199D01*
X160366748Y-126880798D01*
X157464364Y-126880798D01*
X157457008Y-126872484D01*
X157313186Y-126355655D01*
X157433799Y-125738032D01*
X157523166Y-125516943D01*
X157750660Y-125076666D01*
X158013325Y-124790674D01*
X158387409Y-124615250D01*
X158949160Y-124506676D01*
X159367597Y-124459431D01*
X160199399Y-124315307D01*
X160757018Y-124078555D01*
X161032003Y-123753558D01*
X161061287Y-123581051D01*
X161007364Y-123350538D01*
X160924918Y-123316807D01*
X160739293Y-123383739D01*
X160319635Y-123533831D01*
X159720242Y-123747699D01*
X158995415Y-124005958D01*
X158638914Y-124132871D01*
X156489280Y-124897932D01*
X156333688Y-125513285D01*
X156022353Y-126242480D01*
X155545354Y-126737720D01*
X154950417Y-126982851D01*
X154285267Y-126961719D01*
X153597632Y-126658171D01*
X153392888Y-126508654D01*
X152778466Y-126014892D01*
X147853913Y-127268405D01*
X146068091Y-127723481D01*
X144555743Y-128110252D01*
X143293572Y-128435088D01*
X142258279Y-128704358D01*
X141426566Y-128924432D01*
X140775135Y-129101682D01*
X140280687Y-129242476D01*
X139919924Y-129353184D01*
X139669548Y-129440177D01*
X139506260Y-129509824D01*
X139406762Y-129568496D01*
X139388104Y-129583040D01*
X139234102Y-129865596D01*
X139211082Y-130163750D01*
X129422163Y-130163750D01*
X128646438Y-128433321D01*
X140020926Y-128433321D01*
X140100653Y-128497034D01*
X140102844Y-128497073D01*
X140295324Y-128461425D01*
X140752299Y-128358200D01*
X141441666Y-128195186D01*
X142331320Y-127980174D01*
X143389159Y-127720954D01*
X144583079Y-127425314D01*
X145880976Y-127101046D01*
X146566467Y-126928699D01*
X152804779Y-125356968D01*
X152963710Y-124771688D01*
X153154138Y-124327635D01*
X153499915Y-123975591D01*
X153797369Y-123777110D01*
X154150079Y-123547462D01*
X155056666Y-123547462D01*
X155572531Y-123865743D01*
X155946069Y-124073769D01*
X156223672Y-124189433D01*
X156262653Y-124196701D01*
X156467405Y-124153973D01*
X156898668Y-124028206D01*
X157494473Y-123838481D01*
X158192850Y-123603883D01*
X158235785Y-123589099D01*
X159311062Y-123203475D01*
X160165022Y-122865812D01*
X160778034Y-122584909D01*
X161130463Y-122369562D01*
X161211956Y-122255364D01*
X161083870Y-122004733D01*
X161024955Y-121947215D01*
X164369059Y-121947215D01*
X164427618Y-122150773D01*
X164484215Y-122281065D01*
X164576142Y-122400693D01*
X164734285Y-122522845D01*
X164989530Y-122660713D01*
X165372766Y-122827487D01*
X165914879Y-123036357D01*
X166646756Y-123300513D01*
X167599284Y-123633147D01*
X168803351Y-124047447D01*
X169135653Y-124161342D01*
X170260462Y-124545020D01*
X171296070Y-124895027D01*
X172206008Y-125199292D01*
X172953812Y-125445745D01*
X173503013Y-125622317D01*
X173817145Y-125716935D01*
X173874023Y-125729715D01*
X174082592Y-125668935D01*
X174497622Y-125497001D01*
X175053294Y-125242454D01*
X175518903Y-125016411D01*
X176163690Y-124692736D01*
X176582841Y-124461656D01*
X176824947Y-124279934D01*
X176938599Y-124104332D01*
X176972388Y-123891613D01*
X176974540Y-123721133D01*
X177057012Y-123216000D01*
X177341717Y-122737093D01*
X177458809Y-122597390D01*
X177943078Y-122045839D01*
X177531373Y-118652006D01*
X177405671Y-117613088D01*
X177287142Y-116628438D01*
X177182645Y-115755429D01*
X177099041Y-115051436D01*
X177043189Y-114573833D01*
X177031498Y-114471060D01*
X176960019Y-113995611D01*
X176914295Y-113893132D01*
X177763905Y-113893132D01*
X177786438Y-114325661D01*
X177840251Y-114963217D01*
X177919445Y-115756826D01*
X178018120Y-116657512D01*
X178130376Y-117616300D01*
X178250316Y-118584216D01*
X178372038Y-119512286D01*
X178489646Y-120351533D01*
X178597238Y-121052983D01*
X178688916Y-121567662D01*
X178757760Y-121843967D01*
X178966968Y-122057845D01*
X179303929Y-122037234D01*
X179719758Y-121797541D01*
X180112722Y-121416907D01*
X180718267Y-120629206D01*
X181081899Y-119931075D01*
X181229078Y-119263213D01*
X181222255Y-118832666D01*
X181169439Y-118513592D01*
X181056392Y-118173145D01*
X180857655Y-117762760D01*
X180547768Y-117233873D01*
X180101271Y-116537916D01*
X179713512Y-115954721D01*
X179110776Y-115069527D01*
X178645985Y-114422429D01*
X178444858Y-114171858D01*
X179463465Y-114171858D01*
X179512862Y-114322699D01*
X179706838Y-114680155D01*
X180017980Y-115197725D01*
X180418871Y-115828908D01*
X180631964Y-116153804D01*
X181145514Y-116916804D01*
X181537397Y-117462387D01*
X181845659Y-117834179D01*
X182108343Y-118075805D01*
X182363494Y-118230892D01*
X182491605Y-118286284D01*
X183009845Y-118599613D01*
X183266928Y-119010857D01*
X183242493Y-119483491D01*
X183207468Y-119570421D01*
X183035517Y-119810983D01*
X182722316Y-120013217D01*
X182198098Y-120218267D01*
X181997988Y-120283704D01*
X181795117Y-120437008D01*
X181470897Y-120777284D01*
X181082241Y-121242761D01*
X180913183Y-121461129D01*
X180083848Y-122557228D01*
X180313595Y-123268544D01*
X180458564Y-123726325D01*
X180564197Y-124076058D01*
X180590284Y-124171124D01*
X180716524Y-124350586D01*
X180920544Y-124248996D01*
X181091610Y-124022332D01*
X181231761Y-123784702D01*
X181493719Y-123328492D01*
X181849899Y-122702205D01*
X182272718Y-121954343D01*
X182734591Y-121133410D01*
X182735576Y-121131654D01*
X184131466Y-118644651D01*
X187820673Y-118644651D01*
X188119073Y-119399605D01*
X188267129Y-119749718D01*
X188524501Y-120332336D01*
X188870667Y-121102846D01*
X189285104Y-122016640D01*
X189747289Y-123029104D01*
X190236701Y-124095630D01*
X190732817Y-125171604D01*
X191215115Y-126212418D01*
X191663072Y-127173460D01*
X192056165Y-128010118D01*
X192373873Y-128677783D01*
X192595674Y-129131842D01*
X192601800Y-129144016D01*
X192853439Y-129620949D01*
X193048439Y-129884440D01*
X193261182Y-129997603D01*
X193566051Y-130023555D01*
X193638686Y-130023835D01*
X194093939Y-129970398D01*
X194318738Y-129794994D01*
X194336501Y-129756064D01*
X194406144Y-129568308D01*
X194571340Y-129118324D01*
X194822845Y-128431409D01*
X195151419Y-127532857D01*
X195547819Y-126447964D01*
X196002804Y-125202025D01*
X196507132Y-123820334D01*
X197051561Y-122328188D01*
X197626848Y-120750881D01*
X197723663Y-120485378D01*
X198338723Y-118800657D01*
X198952852Y-117122320D01*
X199552874Y-115486132D01*
X200125614Y-113927857D01*
X200657896Y-112483262D01*
X201136544Y-111188112D01*
X201548382Y-110078171D01*
X201880234Y-109189205D01*
X202092276Y-108626944D01*
X202687560Y-107049800D01*
X203173311Y-105735129D01*
X203556046Y-104662238D01*
X203842283Y-103810437D01*
X204038538Y-103159031D01*
X204151329Y-102687328D01*
X204187173Y-102374636D01*
X204152588Y-102200263D01*
X204126235Y-102169049D01*
X203876135Y-102044296D01*
X203774184Y-102046417D01*
X203627412Y-102154802D01*
X203266806Y-102443986D01*
X202712329Y-102897317D01*
X201983949Y-103498140D01*
X201101631Y-104229802D01*
X200085341Y-105075648D01*
X198955044Y-106019026D01*
X197730705Y-107043282D01*
X196432292Y-108131761D01*
X195079769Y-109267811D01*
X193693102Y-110434777D01*
X192292257Y-111616006D01*
X191558221Y-112235948D01*
X190600634Y-113051282D01*
X189861774Y-113695675D01*
X189321086Y-114188961D01*
X188958015Y-114550978D01*
X188752007Y-114801559D01*
X188682508Y-114960539D01*
X188689059Y-115004715D01*
X188766063Y-115301283D01*
X188840099Y-115767545D01*
X188869098Y-116027749D01*
X188823632Y-116912168D01*
X188500096Y-117734889D01*
X188139774Y-118252014D01*
X187820673Y-118644651D01*
X184131466Y-118644651D01*
X184167173Y-118581034D01*
X183707604Y-117707379D01*
X183368374Y-116900983D01*
X183247776Y-116207856D01*
X183247746Y-116198960D01*
X183247458Y-115564197D01*
X181398883Y-114824607D01*
X180703501Y-114555205D01*
X180113824Y-114343386D01*
X179685497Y-114207918D01*
X179474168Y-114167568D01*
X179463465Y-114171858D01*
X178444858Y-114171858D01*
X178298649Y-113989705D01*
X178048277Y-113747634D01*
X177874380Y-113672494D01*
X177778550Y-113714605D01*
X177763905Y-113893132D01*
X176914295Y-113893132D01*
X176836377Y-113718498D01*
X176591653Y-113532494D01*
X176355114Y-113418701D01*
X175942489Y-113269800D01*
X175627080Y-113220417D01*
X175567407Y-113231044D01*
X175387219Y-113332480D01*
X174987762Y-113575913D01*
X174407011Y-113937585D01*
X173682944Y-114393737D01*
X172853538Y-114920611D01*
X172243678Y-115310408D01*
X169119442Y-117312181D01*
X169092661Y-118073324D01*
X169025585Y-118608713D01*
X168887322Y-119076543D01*
X168813826Y-119219150D01*
X168412804Y-119575174D01*
X167809818Y-119795323D01*
X167088339Y-119854062D01*
X166814726Y-119830654D01*
X166504728Y-119802393D01*
X166259465Y-119839519D01*
X166009505Y-119981102D01*
X165685420Y-120266213D01*
X165227951Y-120723579D01*
X164772424Y-121195231D01*
X164500677Y-121514939D01*
X164377843Y-121744876D01*
X164369059Y-121947215D01*
X161024955Y-121947215D01*
X160770925Y-121699207D01*
X160367515Y-121409064D01*
X159968034Y-121204582D01*
X159726906Y-121149708D01*
X159505806Y-121232304D01*
X159135272Y-121445460D01*
X158842357Y-121640961D01*
X158036581Y-122037959D01*
X157183318Y-122151565D01*
X156340047Y-121978867D01*
X155946055Y-121787755D01*
X155584228Y-121590233D01*
X155350440Y-121492588D01*
X155311710Y-121492288D01*
X155272078Y-121658098D01*
X155216541Y-122043797D01*
X155159407Y-122544656D01*
X155056666Y-123547462D01*
X154150079Y-123547462D01*
X154194369Y-123518625D01*
X154394607Y-123291459D01*
X154466297Y-122975148D01*
X154476933Y-122577012D01*
X154497055Y-122073412D01*
X154542915Y-121673048D01*
X154574646Y-121544181D01*
X154562316Y-121337448D01*
X154448348Y-121302148D01*
X154274135Y-121367705D01*
X153857789Y-121554000D01*
X153231171Y-121845466D01*
X152426142Y-122226538D01*
X151474563Y-122681652D01*
X150408294Y-123195241D01*
X149259196Y-123751741D01*
X148059130Y-124335586D01*
X146839956Y-124931211D01*
X145633537Y-125523050D01*
X144471731Y-126095539D01*
X143386400Y-126633111D01*
X142409405Y-127120202D01*
X141572607Y-127541245D01*
X140907866Y-127880677D01*
X140447043Y-128122931D01*
X140222551Y-128252055D01*
X140020926Y-128433321D01*
X128646438Y-128433321D01*
X127513393Y-125905807D01*
X126882220Y-126229412D01*
X126025420Y-126515993D01*
X125173751Y-126496725D01*
X124333272Y-126171780D01*
X124305933Y-126155929D01*
X123624010Y-125756295D01*
X122529062Y-126103451D01*
X121992416Y-126279874D01*
X121579911Y-126427246D01*
X121369712Y-126517411D01*
X121360271Y-126524450D01*
X118341137Y-126524450D01*
X118480122Y-126365120D01*
X118880193Y-125878315D01*
X119240687Y-125575144D01*
X119672763Y-125372914D01*
X119922482Y-125292117D01*
X120378423Y-125089709D01*
X120567763Y-124805705D01*
X120508137Y-124390029D01*
X120358677Y-124053610D01*
X120325235Y-123957823D01*
X124205705Y-123957823D01*
X124302614Y-124479387D01*
X124580929Y-124944098D01*
X124987342Y-125309187D01*
X125468544Y-125531884D01*
X125971227Y-125569420D01*
X126442082Y-125379025D01*
X126603824Y-125235626D01*
X127009094Y-124635811D01*
X127172287Y-124008531D01*
X127112167Y-123411366D01*
X126847497Y-122901898D01*
X126397042Y-122537708D01*
X125779565Y-122376378D01*
X125671054Y-122373233D01*
X125123042Y-122513011D01*
X124646474Y-122938547D01*
X124343511Y-123422176D01*
X124205705Y-123957823D01*
X120325235Y-123957823D01*
X120118902Y-123366821D01*
X120083789Y-122717510D01*
X120976478Y-122717510D01*
X121044111Y-122801191D01*
X121283524Y-122823317D01*
X121736532Y-122782626D01*
X122444950Y-122677856D01*
X122480419Y-122672115D01*
X123270927Y-122478288D01*
X123878380Y-122165051D01*
X124023628Y-122055837D01*
X124816089Y-121566021D01*
X125609570Y-121376589D01*
X126340624Y-121458680D01*
X126734863Y-121552378D01*
X126978551Y-121586683D01*
X127010453Y-121579976D01*
X127032684Y-121417539D01*
X127064142Y-121009840D01*
X127100739Y-120417350D01*
X127138386Y-119700541D01*
X127140475Y-119657269D01*
X127172567Y-118822131D01*
X127173344Y-118256065D01*
X127141030Y-117923549D01*
X127073852Y-117789059D01*
X127046815Y-117782018D01*
X126442506Y-117668763D01*
X125766838Y-117369241D01*
X125139252Y-116936446D01*
X125137322Y-116934795D01*
X124778749Y-116644782D01*
X124485296Y-116486615D01*
X124143161Y-116426305D01*
X123638544Y-116429862D01*
X123470270Y-116436897D01*
X122437907Y-116482269D01*
X121709366Y-119542510D01*
X121489777Y-120469393D01*
X121296290Y-121294694D01*
X121139558Y-121972263D01*
X121030234Y-122455950D01*
X120978970Y-122699606D01*
X120976478Y-122717510D01*
X120083789Y-122717510D01*
X120076984Y-122591679D01*
X120230966Y-121660439D01*
X120283577Y-121455160D01*
X120407299Y-120976550D01*
X120490112Y-120622428D01*
X120511279Y-120498835D01*
X120376352Y-120427986D01*
X120035816Y-120387634D01*
X119879553Y-120384076D01*
X119340006Y-120311299D01*
X118753456Y-120129130D01*
X118577915Y-120050413D01*
X117909819Y-119716749D01*
X116992782Y-120155053D01*
X116075745Y-120593356D01*
X115188742Y-120593356D01*
X115224089Y-120331582D01*
X115269085Y-119724064D01*
X115308040Y-118924573D01*
X115338325Y-117990130D01*
X115357313Y-116977762D01*
X115360280Y-116683973D01*
X115363586Y-116276466D01*
X116381769Y-116276466D01*
X116384984Y-117125962D01*
X116393890Y-117857542D01*
X116407376Y-118421294D01*
X116424335Y-118767308D01*
X116439038Y-118853956D01*
X116604443Y-118807556D01*
X116957933Y-118690009D01*
X117165845Y-118617586D01*
X117857756Y-118461212D01*
X118364366Y-118546892D01*
X118682536Y-118864393D01*
X118981925Y-119182383D01*
X119415582Y-119410128D01*
X119626076Y-119456305D01*
X119831473Y-119405889D01*
X120123365Y-119288431D01*
X120405464Y-119045914D01*
X120511768Y-118640095D01*
X120440528Y-118048628D01*
X120189999Y-117249162D01*
X119910198Y-116561142D01*
X119438768Y-115572728D01*
X118950974Y-114727504D01*
X118476435Y-114069569D01*
X118044771Y-113643024D01*
X117883434Y-113543508D01*
X117366071Y-113324396D01*
X117018388Y-113268543D01*
X116755805Y-113368901D01*
X116665665Y-113442054D01*
X116560603Y-113563986D01*
X116484954Y-113741596D01*
X116433992Y-114022050D01*
X116402995Y-114452511D01*
X116387238Y-115080142D01*
X116381997Y-115952108D01*
X116381769Y-116276466D01*
X115363586Y-116276466D01*
X115387191Y-113366401D01*
X115833213Y-112900462D01*
X116369629Y-112476379D01*
X116962576Y-112222417D01*
X117513411Y-112176531D01*
X117641717Y-112204617D01*
X118233946Y-112515092D01*
X118864053Y-113074011D01*
X119493491Y-113833493D01*
X120083712Y-114745655D01*
X120596167Y-115762616D01*
X120695617Y-115998045D01*
X120897756Y-116453287D01*
X121068907Y-116767137D01*
X121159467Y-116864586D01*
X121305074Y-116761161D01*
X121478710Y-116437832D01*
X121687100Y-115875787D01*
X121936969Y-115056218D01*
X122111704Y-114413777D01*
X123114300Y-114413777D01*
X123253193Y-114500253D01*
X123614107Y-114556511D01*
X123955866Y-114569618D01*
X124419263Y-114583976D01*
X124755722Y-114659011D01*
X125049433Y-114842670D01*
X125384588Y-115182899D01*
X125715504Y-115571707D01*
X126080662Y-115955060D01*
X126476761Y-116290855D01*
X126816759Y-116510590D01*
X126969717Y-116558775D01*
X127110835Y-116437684D01*
X127312628Y-116138709D01*
X127356171Y-116061486D01*
X127465417Y-115812611D01*
X127541776Y-115496270D01*
X127590628Y-115057155D01*
X127617354Y-114439961D01*
X127627335Y-113589381D01*
X127627871Y-113269016D01*
X127615932Y-112193947D01*
X127572299Y-111376373D01*
X127485696Y-110768449D01*
X127344851Y-110322327D01*
X127138489Y-109990162D01*
X126855338Y-109724107D01*
X126779410Y-109668121D01*
X126354779Y-109455974D01*
X125815413Y-109297030D01*
X125652761Y-109268864D01*
X124951911Y-109172802D01*
X124588109Y-109996812D01*
X124415052Y-110424440D01*
X124195049Y-111019030D01*
X123949981Y-111715002D01*
X123701732Y-112446776D01*
X123472182Y-113148773D01*
X123283214Y-113755413D01*
X123156710Y-114201116D01*
X123114300Y-114413777D01*
X122111704Y-114413777D01*
X122235041Y-113960312D01*
X122332992Y-113582153D01*
X122778943Y-111991249D01*
X123229610Y-110694006D01*
X123695466Y-109678112D01*
X124186988Y-108931259D01*
X124714649Y-108441134D01*
X125288924Y-108195430D01*
X125920288Y-108181835D01*
X126619216Y-108388039D01*
X126716413Y-108430723D01*
X127438010Y-108887625D01*
X127986364Y-109535156D01*
X128370764Y-110394144D01*
X128600500Y-111485417D01*
X128684861Y-112829803D01*
X128685001Y-112844461D01*
X128699739Y-113491001D01*
X128728339Y-114000712D01*
X128766263Y-114311674D01*
X128797330Y-114377555D01*
X128935856Y-114246428D01*
X129201083Y-113940881D01*
X129507778Y-113561984D01*
X130069725Y-112966054D01*
X130659263Y-112544061D01*
X131216469Y-112331261D01*
X131594575Y-112334286D01*
X132153130Y-112602381D01*
X132663797Y-113064065D01*
X133002119Y-113595816D01*
X133110149Y-114009682D01*
X133186225Y-114597718D01*
X133213095Y-115194557D01*
X133213095Y-116288361D01*
X133821285Y-115738897D01*
X134402245Y-115289937D01*
X134899512Y-115093958D01*
X135374026Y-115134252D01*
X135631297Y-115242664D01*
X136265704Y-115729438D01*
X136665662Y-116408981D01*
X136829360Y-117275241D01*
X136754988Y-118322165D01*
X136673367Y-118725893D01*
X136409185Y-119630940D01*
X136007554Y-120707302D01*
X135503629Y-121873594D01*
X134932566Y-123048429D01*
X134331912Y-124146330D01*
X133952172Y-124804565D01*
X133707834Y-125284022D01*
X133580208Y-125670325D01*
X133550603Y-126049095D01*
X133600329Y-126505954D01*
X133697278Y-127053652D01*
X133875438Y-128020559D01*
X134458031Y-127559137D01*
X134952545Y-127263743D01*
X137762297Y-127263743D01*
X138127154Y-127567614D01*
X138410839Y-127782800D01*
X138584318Y-127876518D01*
X138585171Y-127876576D01*
X138735722Y-127811720D01*
X139135977Y-127623228D01*
X139761304Y-127323084D01*
X140587074Y-126923269D01*
X141588658Y-126435767D01*
X142741424Y-125872560D01*
X144020743Y-125245630D01*
X145401986Y-124566961D01*
X146547133Y-124003046D01*
X154415934Y-120124426D01*
X154757311Y-117920818D01*
X154890953Y-117019858D01*
X159059355Y-117019858D01*
X159556244Y-117638170D01*
X159847369Y-118049155D01*
X160011800Y-118449536D01*
X160095082Y-118970405D01*
X160116431Y-119250552D01*
X160179729Y-120244622D01*
X161010238Y-120664575D01*
X161552182Y-120906152D01*
X162047061Y-121029876D01*
X162642553Y-121066722D01*
X162917128Y-121064553D01*
X163993509Y-121044577D01*
X164904240Y-120133846D01*
X165814971Y-119223116D01*
X165639564Y-118388234D01*
X165496047Y-117865215D01*
X165319081Y-117432953D01*
X165213626Y-117266939D01*
X164891292Y-116959199D01*
X164357115Y-116519448D01*
X163656078Y-115982085D01*
X162833162Y-115381509D01*
X161933350Y-114752119D01*
X161855593Y-114698962D01*
X160554827Y-113811347D01*
X159807091Y-115415602D01*
X159059355Y-117019858D01*
X154890953Y-117019858D01*
X154962842Y-116535211D01*
X154972962Y-116459233D01*
X155712827Y-116459233D01*
X155733065Y-116708038D01*
X155796494Y-116817437D01*
X155906112Y-116828687D01*
X156050143Y-116787879D01*
X156397149Y-116706429D01*
X156907775Y-116621392D01*
X157235986Y-116578768D01*
X158077553Y-116482269D01*
X158721400Y-115258173D01*
X159128323Y-114482398D01*
X159398884Y-113926585D01*
X159533681Y-113537029D01*
X159533314Y-113260026D01*
X159444232Y-113116004D01*
X160893142Y-113116004D01*
X161321492Y-113461924D01*
X161588694Y-113666841D01*
X162052511Y-114011362D01*
X162660635Y-114457080D01*
X163360756Y-114965588D01*
X163852632Y-115320401D01*
X165955422Y-116832957D01*
X166524443Y-116542854D01*
X166949445Y-116357832D01*
X167299061Y-116258264D01*
X167361943Y-116252751D01*
X167673132Y-116316520D01*
X168090651Y-116473323D01*
X168162801Y-116506624D01*
X168695178Y-116760497D01*
X170730944Y-115479243D01*
X171961569Y-114703231D01*
X172954876Y-114072816D01*
X173733701Y-113572442D01*
X174320883Y-113186558D01*
X174739260Y-112899610D01*
X175011669Y-112696044D01*
X175160949Y-112560307D01*
X175209938Y-112476846D01*
X175194703Y-112439287D01*
X175017686Y-112350506D01*
X174593851Y-112165992D01*
X173960638Y-111900659D01*
X173155487Y-111569421D01*
X172215839Y-111187191D01*
X171179133Y-110768882D01*
X170082811Y-110329406D01*
X168964312Y-109883678D01*
X167861076Y-109446611D01*
X166810545Y-109033116D01*
X165850158Y-108658109D01*
X165017356Y-108336502D01*
X164349578Y-108083207D01*
X163884265Y-107913139D01*
X163658858Y-107841210D01*
X163647470Y-107839806D01*
X163510404Y-107974727D01*
X163267259Y-108354813D01*
X162937191Y-108946005D01*
X162539355Y-109714243D01*
X162163058Y-110479264D01*
X160893142Y-113116004D01*
X159444232Y-113116004D01*
X159398379Y-113041871D01*
X159129475Y-112828861D01*
X158751199Y-112582822D01*
X157829313Y-111986978D01*
X157127330Y-112360226D01*
X156691959Y-112573940D01*
X156352552Y-112708996D01*
X156241033Y-112733474D01*
X156132587Y-112886236D01*
X156025487Y-113343524D01*
X155920043Y-114103844D01*
X155881292Y-114463825D01*
X155789939Y-115378383D01*
X155732784Y-116029766D01*
X155712827Y-116459233D01*
X154972962Y-116459233D01*
X155124676Y-115320167D01*
X155240537Y-114299760D01*
X155308153Y-113498062D01*
X155325250Y-112939146D01*
X155289554Y-112647085D01*
X155258925Y-112609996D01*
X154686699Y-112288008D01*
X154166423Y-111765994D01*
X153809141Y-111167178D01*
X153790681Y-111116292D01*
X158243316Y-111116292D01*
X158349543Y-111279556D01*
X158627912Y-111559520D01*
X159003328Y-111892535D01*
X159400697Y-112214950D01*
X159744927Y-112463117D01*
X159960922Y-112573387D01*
X159962718Y-112573654D01*
X160042032Y-112445773D01*
X160227456Y-112089226D01*
X160494771Y-111552230D01*
X160819760Y-110883001D01*
X160977653Y-110553052D01*
X161314374Y-109831371D01*
X161591553Y-109208534D01*
X161787420Y-108735788D01*
X161880207Y-108464380D01*
X161882848Y-108422081D01*
X161726759Y-108436818D01*
X161344778Y-108552087D01*
X160792802Y-108749071D01*
X160126730Y-109008953D01*
X160064707Y-109034130D01*
X158307285Y-109749739D01*
X158281676Y-110323534D01*
X158261343Y-110762013D01*
X158244967Y-111087039D01*
X158243316Y-111116292D01*
X153790681Y-111116292D01*
X153635571Y-110688711D01*
X153593864Y-110324407D01*
X153672037Y-109918318D01*
X153704574Y-109806409D01*
X154084809Y-109036853D01*
X154687010Y-108455435D01*
X155360405Y-108136850D01*
X155830259Y-108031082D01*
X156250793Y-108039244D01*
X156692818Y-108183842D01*
X157227144Y-108487379D01*
X157874097Y-108935747D01*
X158023183Y-108991880D01*
X158260800Y-108978632D01*
X158631980Y-108883752D01*
X159181756Y-108694990D01*
X159955160Y-108400093D01*
X160207531Y-108300934D01*
X160941201Y-108004529D01*
X161561202Y-107740823D01*
X162017369Y-107532195D01*
X162259538Y-107401024D01*
X162285384Y-107373977D01*
X162253160Y-107320732D01*
X162142081Y-107242150D01*
X162117299Y-107228896D01*
X165143039Y-107228896D01*
X165313824Y-107316383D01*
X165729434Y-107501476D01*
X166350773Y-107767603D01*
X167138741Y-108098189D01*
X168054241Y-108476659D01*
X168941408Y-108839040D01*
X170013972Y-109274875D01*
X171064753Y-109702068D01*
X172037941Y-110097914D01*
X172877728Y-110439707D01*
X173528304Y-110704744D01*
X173837794Y-110831033D01*
X174491039Y-111095471D01*
X174912421Y-111255366D01*
X175152478Y-111324071D01*
X175261747Y-111314937D01*
X175290769Y-111241318D01*
X175291408Y-111215093D01*
X175382279Y-111017950D01*
X175608800Y-110699826D01*
X175693983Y-110595387D01*
X176096559Y-110116954D01*
X175221566Y-107689439D01*
X174894211Y-106791246D01*
X174643721Y-106138588D01*
X174447625Y-105687547D01*
X174283450Y-105394208D01*
X174128721Y-105214654D01*
X173960966Y-105104967D01*
X173880590Y-105068908D01*
X173476775Y-104853353D01*
X175001758Y-104853353D01*
X175863517Y-107301546D01*
X176157693Y-108117659D01*
X176428394Y-108832368D01*
X176655566Y-109395496D01*
X176819154Y-109756863D01*
X176888161Y-109865374D01*
X177085837Y-109972340D01*
X177272996Y-109977317D01*
X177469555Y-109852765D01*
X177695430Y-109571144D01*
X177970539Y-109104916D01*
X178314799Y-108426541D01*
X178748126Y-107508478D01*
X179019018Y-106919016D01*
X179482412Y-105881033D01*
X179866894Y-104970958D01*
X180157780Y-104226210D01*
X180340385Y-103684207D01*
X180400046Y-103399739D01*
X180417312Y-102864197D01*
X179499239Y-102877279D01*
X178885538Y-102909295D01*
X178125655Y-102981437D01*
X177374434Y-103078744D01*
X177307233Y-103089051D01*
X176675912Y-103195984D01*
X176280587Y-103295001D01*
X176053409Y-103414621D01*
X175926526Y-103583360D01*
X175882138Y-103688018D01*
X175664829Y-104088300D01*
X175366366Y-104470823D01*
X175001758Y-104853353D01*
X173476775Y-104853353D01*
X173434884Y-104830992D01*
X172987842Y-104516524D01*
X172963710Y-104496487D01*
X172512814Y-104117083D01*
X168764887Y-105613838D01*
X167772773Y-106016136D01*
X166888660Y-106386384D01*
X166148128Y-106708715D01*
X165586758Y-106967263D01*
X165240129Y-107146163D01*
X165143039Y-107228896D01*
X162117299Y-107228896D01*
X161930535Y-107129012D01*
X161596909Y-106972096D01*
X161119592Y-106762182D01*
X160476972Y-106490050D01*
X159647437Y-106146478D01*
X158609374Y-105722247D01*
X157341172Y-105208136D01*
X155821220Y-104594924D01*
X154941965Y-104240984D01*
X153466885Y-103650265D01*
X152251251Y-103170095D01*
X151272416Y-102792384D01*
X150507734Y-102509041D01*
X149934559Y-102311977D01*
X149530245Y-102193100D01*
X149272147Y-102144321D01*
X149137617Y-102157549D01*
X149127507Y-102163777D01*
X148471447Y-102610324D01*
X147977145Y-102860736D01*
X147594919Y-102940115D01*
X147590871Y-102940131D01*
X147489094Y-102952387D01*
X147388997Y-103006199D01*
X147278783Y-103127605D01*
X147146658Y-103342642D01*
X146980827Y-103677348D01*
X146769495Y-104157760D01*
X146500865Y-104809917D01*
X146163144Y-105659855D01*
X145744537Y-106733613D01*
X145233247Y-108057227D01*
X145008633Y-108640401D01*
X144441541Y-110110766D01*
X143791366Y-111792095D01*
X143086798Y-113610468D01*
X142356528Y-115491967D01*
X141629245Y-117362676D01*
X140933640Y-119148674D01*
X140298405Y-120776045D01*
X140288290Y-120801921D01*
X137762297Y-127263743D01*
X134952545Y-127263743D01*
X135310960Y-127049647D01*
X136210171Y-126821482D01*
X136452390Y-126810582D01*
X136521137Y-126814837D01*
X136582854Y-126817060D01*
X136644131Y-126801437D01*
X136711556Y-126752157D01*
X136791717Y-126653405D01*
X136891202Y-126489370D01*
X137016600Y-126244239D01*
X137174500Y-125902197D01*
X137371490Y-125447433D01*
X137614158Y-124864134D01*
X137909093Y-124136487D01*
X138262884Y-123248678D01*
X138682118Y-122184896D01*
X139173385Y-120929326D01*
X139743272Y-119466157D01*
X140398369Y-117779575D01*
X141145263Y-115853767D01*
X141990544Y-113672921D01*
X142848326Y-111459776D01*
X146218718Y-102764994D01*
X145854489Y-102126041D01*
X145519253Y-101447428D01*
X145422123Y-101047686D01*
X149570301Y-101047686D01*
X156195614Y-103737715D01*
X157537881Y-104282620D01*
X158791134Y-104791222D01*
X159927329Y-105252154D01*
X160918425Y-105654045D01*
X161736377Y-105985528D01*
X162353144Y-106235234D01*
X162740682Y-106391795D01*
X162870864Y-106443862D01*
X162879998Y-106428830D01*
X164121528Y-106428830D01*
X164241489Y-106599967D01*
X164311468Y-106612992D01*
X164498490Y-106558162D01*
X164930822Y-106403440D01*
X165569993Y-106163480D01*
X166377534Y-105852932D01*
X167314976Y-105486450D01*
X168343850Y-105078685D01*
X168429212Y-105044618D01*
X172357015Y-103476245D01*
X172447980Y-102908273D01*
X172635495Y-102385639D01*
X173053279Y-101938223D01*
X173084249Y-101913695D01*
X173629552Y-101487088D01*
X173536285Y-95060582D01*
X173510254Y-93342995D01*
X173485522Y-91907109D01*
X173460868Y-90728608D01*
X173435069Y-89783180D01*
X173406903Y-89046511D01*
X173375148Y-88494288D01*
X173338581Y-88102196D01*
X173295980Y-87845922D01*
X173246122Y-87701153D01*
X173202804Y-87658398D01*
X174417340Y-87658398D01*
X174486545Y-94572743D01*
X174503956Y-96221591D01*
X174520994Y-97590701D01*
X174538841Y-98706353D01*
X174558678Y-99594829D01*
X174581686Y-100282411D01*
X174609046Y-100795380D01*
X174641939Y-101160018D01*
X174681546Y-101402605D01*
X174729049Y-101549424D01*
X174785628Y-101626755D01*
X174804168Y-101640100D01*
X175077349Y-101851383D01*
X175414249Y-102163940D01*
X175451313Y-102201486D01*
X175850040Y-102609861D01*
X177674640Y-102387036D01*
X178585451Y-102274547D01*
X179242441Y-102183968D01*
X179695461Y-102099357D01*
X179994366Y-102004771D01*
X180189006Y-101884267D01*
X180329236Y-101721900D01*
X180464906Y-101501729D01*
X180470019Y-101493061D01*
X180783495Y-101106704D01*
X181135440Y-100875307D01*
X181177266Y-100862649D01*
X181746034Y-100861945D01*
X182267909Y-101104051D01*
X182674733Y-101526495D01*
X182898347Y-102066802D01*
X182912940Y-102453573D01*
X182816400Y-102735504D01*
X182558076Y-102993174D01*
X182075997Y-103287194D01*
X182041831Y-103305586D01*
X181703758Y-103494970D01*
X181445648Y-103679903D01*
X181226906Y-103915079D01*
X181006939Y-104255194D01*
X180745151Y-104754944D01*
X180400951Y-105469024D01*
X180338392Y-105600767D01*
X179937158Y-106454901D01*
X179515189Y-107367600D01*
X179125612Y-108223203D01*
X178849156Y-108843002D01*
X178239686Y-110231446D01*
X178544785Y-110650280D01*
X178774710Y-111151519D01*
X178866624Y-111863142D01*
X178868538Y-111932342D01*
X178887191Y-112795569D01*
X181255537Y-113756062D01*
X183623883Y-114716556D01*
X184162766Y-114193161D01*
X184579609Y-113841418D01*
X184995601Y-113571139D01*
X185132393Y-113507644D01*
X185931417Y-113355337D01*
X186781039Y-113445121D01*
X187173443Y-113575040D01*
X187582727Y-113724908D01*
X187891760Y-113801850D01*
X187929989Y-113804558D01*
X188073040Y-113709642D01*
X188426232Y-113438351D01*
X188965157Y-113010873D01*
X189665404Y-112447393D01*
X190502564Y-111768099D01*
X191452227Y-110993177D01*
X192489983Y-110142814D01*
X193591424Y-109237197D01*
X194732138Y-108296512D01*
X195887717Y-107340946D01*
X197033751Y-106390685D01*
X198145830Y-105465917D01*
X199199544Y-104586828D01*
X200170484Y-103773605D01*
X201034240Y-103046434D01*
X201766403Y-102425502D01*
X202342562Y-101930995D01*
X202738307Y-101583102D01*
X202929231Y-101402007D01*
X202934361Y-101396018D01*
X203034317Y-101078960D01*
X203048553Y-100483879D01*
X203026627Y-100129001D01*
X202941603Y-99076938D01*
X199789096Y-97551806D01*
X197969995Y-96673611D01*
X196101706Y-95775149D01*
X194205389Y-94866376D01*
X192302204Y-93957252D01*
X190413308Y-93057732D01*
X188559862Y-92177776D01*
X186763025Y-91327340D01*
X185043956Y-90516382D01*
X183423815Y-89754860D01*
X181923759Y-89052732D01*
X180564950Y-88419954D01*
X179368545Y-87866486D01*
X178355704Y-87402283D01*
X177547587Y-87037305D01*
X176965352Y-86781508D01*
X176630158Y-86644851D01*
X176574259Y-86626792D01*
X176175395Y-86654173D01*
X175773506Y-86908058D01*
X175337747Y-87219561D01*
X174890904Y-87462127D01*
X174874702Y-87468952D01*
X174417340Y-87658398D01*
X173202804Y-87658398D01*
X173187785Y-87643574D01*
X173163202Y-87639498D01*
X173042072Y-87768377D01*
X172845533Y-88106020D01*
X172619372Y-88572368D01*
X172439265Y-88962954D01*
X172139151Y-89600760D01*
X171732534Y-90457640D01*
X171232920Y-91505449D01*
X170653811Y-92716042D01*
X170008712Y-94061274D01*
X169311129Y-95513000D01*
X168574564Y-97043074D01*
X167812524Y-98623352D01*
X167038511Y-100225689D01*
X166266030Y-101821940D01*
X165868682Y-102641782D01*
X165399351Y-103616403D01*
X164977684Y-104505070D01*
X164621400Y-105269381D01*
X164348213Y-105870934D01*
X164175842Y-106271328D01*
X164121528Y-106428830D01*
X162879998Y-106428830D01*
X162948255Y-106316500D01*
X163140859Y-105949305D01*
X163430727Y-105377977D01*
X163799909Y-104638216D01*
X164230456Y-103765721D01*
X164689935Y-102825944D01*
X165574812Y-101004009D01*
X166443861Y-99206467D01*
X167286991Y-97454704D01*
X168094113Y-95770110D01*
X168855135Y-94174072D01*
X169559968Y-92687976D01*
X170198521Y-91333212D01*
X170760704Y-90131167D01*
X171236426Y-89103228D01*
X171615597Y-88270783D01*
X171888127Y-87655221D01*
X172043925Y-87277928D01*
X172078155Y-87165759D01*
X171955243Y-86892511D01*
X171840019Y-86815797D01*
X171664132Y-86877509D01*
X171236088Y-87095717D01*
X170563881Y-87465763D01*
X169655507Y-87982985D01*
X168518959Y-88642724D01*
X167162233Y-89440321D01*
X165593324Y-90371114D01*
X163820226Y-91430444D01*
X161850934Y-92613650D01*
X160631886Y-93348863D01*
X149661890Y-99973311D01*
X149616096Y-100510498D01*
X149570301Y-101047686D01*
X145422123Y-101047686D01*
X145384469Y-100892718D01*
X145436211Y-100367434D01*
X145546654Y-100037881D01*
X145959778Y-99369467D01*
X146542292Y-98920470D01*
X147233759Y-98713825D01*
X147973743Y-98772465D01*
X148420947Y-98947159D01*
X149016150Y-99257252D01*
X160049863Y-92559655D01*
X171083577Y-85862057D01*
X171160083Y-84799874D01*
X171288445Y-83913253D01*
X171552182Y-83249481D01*
X171989787Y-82741124D01*
X172547096Y-82369959D01*
X173418324Y-82044378D01*
X174277942Y-81995443D01*
X175076644Y-82209678D01*
G37*
G04 #@! TD*
M02*
